<svg xmlns="http://www.w3.org/2000/svg" viewBox="0 0 666.17 66.16"><defs><style>.a{fill:#ffffff;}</style></defs><path class="a" d="M240.2,16.06c-.38,2-2.06,3.72-3.49,5a10.68,10.68,0,0,1-1.55,1.29c-1.9,1-4.45.35-7,.25.52-1.38,2.42-1.46,3.87-1.8a14.77,14.77,0,0,0,4.14-1.55c-2.07-.71-5-.31-7-.26,0-1.45,1.33-2.63,1.81-4C233,14.27,239.75,14.73,240.2,16.06Z"/><path class="a" d="M459.75,1.15c.09.05.18.09.2.2-.11.63-.63.84-.9,1.3C455.6,4,452.25,5.47,448.92,7c-.56.25-1.15.44-1.7.7s-1,.73-1.61.8c0-.88.52-1.15.71-1.81C450.77,4.8,455.08,2.79,459.75,1.15Z"/><path class="a" d="M122.08,5.35c.79.52,1.85.68,2.55,1.33a6.64,6.64,0,0,1-.32,2.26,7,7,0,0,0-2.64-1c-2.67,5.71-7.41,9.89-12.74,13.63-.47.06.14-.65.28-.82,1.59-2,4-3.71,5.81-5.69,2.12-2.31,4.36-4.58,5.58-7.35-1.11-.4-2.47-.46-3.2-1.35A5.21,5.21,0,0,1,119.74,1C121.4,1.17,122.19,3.32,122.08,5.35Zm-3.53-.91a4.88,4.88,0,0,0,2,.61c-.06-.79-.53-1-.75-1.58A1.47,1.47,0,0,0,118.55,4.44Z"/><path class="a" d="M593,5.07c.7.63,1.72.95,2.32,1.68a6.52,6.52,0,0,1-.65,2.2,6.81,6.81,0,0,0-2.45-1.42c-3.47,5.26-8.77,8.69-14.59,11.62-.47,0,.22-.63.39-.78,1.86-1.7,4.51-3.08,6.58-4.77,2.43-2,5-3.9,6.59-6.46-1-.55-2.37-.82-3-1.81a5.21,5.21,0,0,1,3.1-4.9C592.89.84,593.36,3.07,593,5.07ZM589.6,3.65a4.85,4.85,0,0,0,1.94.91c.05-.79-.38-1.09-.52-1.68A1.47,1.47,0,0,0,589.6,3.65Z"/><path class="a" d="M570.39,1.23c.67,0,.5.79.51,1.42,1.26.71,2.94.78,3.36,2.07A6.24,6.24,0,0,1,574.13,8a3.8,3.8,0,0,1-2.32,1.67c-2,.21-2.73-1.45-2.45-4A17.65,17.65,0,0,1,570.39,1.23Zm2.71,5A8.5,8.5,0,0,0,570.39,5C569.68,7.39,572.54,7.94,573.1,6.27Z"/><path class="a" d="M49.49,2.33c-.38,2-2.06,3.72-3.49,5a10.68,10.68,0,0,1-1.55,1.29c-1.9,1-4.45.34-7,.25.52-1.38,2.42-1.46,3.87-1.8a14.77,14.77,0,0,0,4.14-1.55c-2.07-.71-5-.31-7-.26,0-1.45,1.32-2.63,1.8-4C42.24.54,49,1,49.49,2.33Z"/><path class="a" d="M374.92,11.09c-.22-2.35,2.62-4.4,2.46-6.84a1.79,1.79,0,0,0-.91-1.55c-.9.13-1.14.93-1.94,1.16-.75-1.9,2.15-4.74,3.75-3.1.7.72.78,2.58.52,3.74a21.18,21.18,0,0,1-2.59,5.3C375.87,10.37,375.64,11.26,374.92,11.09Z"/><path class="a" d="M182.08,31.65c-.22-2.35,2.62-4.4,2.45-6.85a1.78,1.78,0,0,0-.9-1.55c-.9.13-1.14.93-1.94,1.16-.75-1.89,2.15-4.73,3.75-3.09.69.71.78,2.58.51,3.74a20.92,20.92,0,0,1-2.58,5.29C183,30.92,182.8,31.82,182.08,31.65Z"/><path class="a" d="M46.68,52.62c.42,2.45-2.92,5.72-1.57,8.62.2.43.77,1.21,1.48,1.13.87-.1.65-1,1.31-1.48.36.15.15.64.08,1-.27,1.29-.68,3.38-2.35,3.31-1.46-.06-2.22-2-2.17-3.74.07-3.11,2.3-6.51,2.78-8.71,0-.09.17-.06.18-.17A.47.47,0,0,0,46.68,52.62Z"/><path class="a" d="M621.89,20.22c.42,2.45-2.92,5.72-1.57,8.62.2.44.78,1.21,1.48,1.14.87-.1.65-1,1.31-1.49.36.15.15.65.08,1-.27,1.29-.69,3.38-2.35,3.31-1.46-.06-2.22-2-2.18-3.74.08-3.11,2.31-6.51,2.79-8.71,0-.09.17-.06.17-.17A.46.46,0,0,0,621.89,20.22Z"/><path class="a" d="M214.7,14.45c.42,2.45-2.91,5.72-1.57,8.62.21.43.78,1.21,1.48,1.13.88-.1.66-1,1.31-1.48.36.15.15.64.09,1-.27,1.28-.69,3.37-2.35,3.3-1.47-.06-2.23-2-2.18-3.74.08-3.11,2.31-6.51,2.79-8.71,0-.09.17-.06.17-.17A.41.41,0,0,0,214.7,14.45Z"/><path class="a" d="M139.07,43.77c.35,2-2.37,4.64-1.27,7,.16.35.63,1,1.2.92s.53-.83,1.06-1.2c.3.12.13.52.07.78-.22,1-.55,2.74-1.91,2.68-1.18-.05-1.8-1.64-1.76-3,.06-2.53,1.87-5.29,2.26-7.07,0-.08.14-.05.14-.14A.4.4,0,0,0,139.07,43.77Z"/><path class="a" d="M512.73,30.27c.34,2-2.37,4.65-1.27,7,.16.35.63,1,1.2.92s.54-.83,1.06-1.2c.3.11.13.52.07.77-.21,1-.55,2.75-1.9,2.69-1.19-.05-1.81-1.65-1.78-3,.07-2.53,1.88-5.29,2.27-7.07,0-.08.14-.05.14-.15A.3.3,0,0,0,512.73,30.27Z"/><path class="a" d="M216.86,54.86c.34,2-2.37,4.65-1.27,7,.16.36.62,1,1.2.92s.53-.83,1.06-1.2c.29.12.12.52.07.78-.22,1-.56,2.74-1.91,2.69-1.19,0-1.81-1.65-1.77-3,.07-2.52,1.88-5.28,2.26-7.07,0-.08.14,0,.14-.14A.36.36,0,0,0,216.86,54.86Z"/><path class="a" d="M490.51,23.6c.34,2-2.37,4.65-1.27,7,.16.35.63,1,1.2.92s.53-.83,1.06-1.2c.29.11.13.52.07.77-.22,1-.56,2.75-1.91,2.69-1.19,0-1.81-1.65-1.77-3,.07-2.53,1.88-5.29,2.26-7.07,0-.08.15-.05.15-.14A.31.31,0,0,0,490.51,23.6Z"/><path class="a" d="M349.49,11.43c.34,2-2.37,4.65-1.27,7,.16.35.63,1,1.2.91s.53-.82,1.06-1.2c.3.12.13.52.07.78-.22,1.05-.55,2.75-1.91,2.69-1.18-.05-1.8-1.65-1.77-3,.07-2.53,1.88-5.29,2.27-7.08,0-.07.14,0,.14-.14A.33.33,0,0,0,349.49,11.43Z"/><path class="a" d="M384.89,24c-1.23-.37-1.11-1.95-2.45-1.94s-1.67,2.16-1.81,4.13.36,4.19-.9,4.78c-.63-.19-.6-1-.78-1.42a9.18,9.18,0,0,0-2.84-3.62c-1.35.47-3.61-.1-4.26-1.16a7.47,7.47,0,0,1,.39-2.84c3.71-.09,5.64,2.7,7.23,5.16.38-1.57.2-3.55.65-5.16.3-1.1,1-2.7,2.58-2.58S386.45,22.13,384.89,24Z"/><path class="a" d="M207.59,45.52c-1.23-.37-1.11-1.94-2.45-1.93s-1.67,2.15-1.81,4.13.36,4.19-.91,4.77c-.62-.19-.59-1-.77-1.42a9.15,9.15,0,0,0-2.84-3.61c-1.35.47-3.61-.1-4.26-1.16a7.22,7.22,0,0,1,.39-2.84c3.71-.09,5.64,2.7,7.23,5.16.38-1.57.19-3.55.64-5.16.31-1.1,1-2.71,2.58-2.58S209.15,43.67,207.59,45.52Z"/><path class="a" d="M123,57.51c-1.23-.36-1.11-1.94-2.45-1.93s-1.67,2.16-1.81,4.13.36,4.19-.9,4.78c-.63-.19-.6-1-.78-1.42a9.18,9.18,0,0,0-2.84-3.62c-1.35.47-3.61-.1-4.26-1.16a7.47,7.47,0,0,1,.39-2.84c3.71-.09,5.64,2.7,7.23,5.17.38-1.58.2-3.56.64-5.17.31-1.1,1-2.7,2.58-2.58S124.52,55.66,123,57.51Z"/><path class="a" d="M539.37,21.8c-1.23-.37-1.11-1.94-2.45-1.94S535.26,22,535.11,24s.36,4.19-.9,4.78c-.63-.19-.6-1-.77-1.42a9.29,9.29,0,0,0-2.85-3.62c-1.35.47-3.6-.1-4.26-1.16a7.44,7.44,0,0,1,.39-2.84c3.71-.09,5.64,2.7,7.23,5.17.38-1.58.2-3.56.64-5.17.31-1.1,1-2.7,2.59-2.58S540.93,19.94,539.37,21.8Z"/><path class="a" d="M378.37,13h.25c.45.91-.33,1.62-.64,2.2-5.23,1.87-10.86,4-16.14,6.07-2,.78-3.85,1.76-5.81,2.58a29,29,0,0,0-2.84,1.29c-.89.49-1.52,1.44-2.58,1.55-.35-2.16,1.77-3.22,3.48-4,1.17-.53,2.4-1,3.36-1.42,3.47-1.54,6.4-2.92,10.07-4.26,2.29-.84,4.69-1.53,7.1-2.46.53-.2,1-.58,1.55-.77C377,13.53,377.79,13.57,378.37,13Z"/><path class="a" d="M633.15,51.45A38.24,38.24,0,0,0,631.54,47a7.79,7.79,0,0,1,7.55-11,24.22,24.22,0,0,1,6.49,1.49c3.48,1.19,6.95,2.42,10.42,3.65a28.81,28.81,0,0,0,5.49,1.36c1.22.17,1.35.39.86,1.49-.21.47-.54.89-.7,1.37a1.69,1.69,0,0,1-1.86,1.35,7.88,7.88,0,0,0-3,1c-3.55,1.54-6.92,3.42-10.34,5.23a32.84,32.84,0,0,1-8,3.18c-.25,0-.5.12-.76.16a5.7,5.7,0,0,0-1.88.29c-.54.28-.41,1.17-.92,1.68a.74.74,0,0,1-.3-.85c.16-.84-.33-1-1-1.13a6.92,6.92,0,0,1-5.29-4.42,20.49,20.49,0,0,1-1-4.5c-.37-2.84-.48-5.7-.73-8.55-.16-1.84,0-3.7-.16-5.54s-.06-3.94-.19-5.9c-.19-2.81-.54-5.61-.72-8.42a58,58,0,0,0-1.38-9.09c-.38-1.66-.8-3.31-1.17-5a1.62,1.62,0,0,1,0-.9,7.49,7.49,0,0,1,1.73-2.91,12.13,12.13,0,0,1,1.57,4.06c.6,3.11,1,6.24,1.43,9.38.55,4.22.51,8.46,1,12.68.23,2.3.21,4.61.36,6.91.11,1.62,0,3.26.12,4.87.24,2.52.3,5.06.76,7.56a14.89,14.89,0,0,0,.65,2.35,5,5,0,0,0,2.34,2.79c.08.09.18.17.28.08S633.2,51.56,633.15,51.45Zm20.91-6.21c-.13-.37-.43-.33-.66-.41-2.82-1-5.62-2.09-8.48-3a26,26,0,0,0-7.5-1.7,8.33,8.33,0,0,0-4.6,1.38.75.75,0,0,0-.35,1.08c.28.63.57,1.25.82,1.88a41.68,41.68,0,0,1,2,6.65c.2.92.3,1,1.19.94a18.61,18.61,0,0,0,3-.48,40.21,40.21,0,0,0,8-3.15C649.67,47.3,651.88,46.3,654.06,45.24Z"/><path class="a" d="M306.33,1a13.73,13.73,0,0,1-1.68,3.18,1.59,1.59,0,0,1-.91.46c-3.13.72-6.18,1.73-9.25,2.71-2.82.9-5.6,1.88-8.39,2.88-2.06.73-4.2,1.24-6.25,2-5.25,2-10.54,3.87-15.74,6-2.85,1.16-5.81,2.09-8.63,3.34-3.18,1.39-6.33,2.87-9.47,4.34-1.6.74-3.18,1.5-4.73,2.32a58.19,58.19,0,0,0-6.2,3.61c-.21.14-.43.32-.69.11a.49.49,0,0,1-.16-.58c.55-1.55.87-3.15,2.55-4.11,4.73-2.7,9.59-5.13,14.56-7.35Q257,17.31,262.85,15,270,12.21,277.29,9.6c4.68-1.69,9.43-3.16,14.1-4.88,3.47-1.27,7-2.37,10.51-3.44A29.07,29.07,0,0,0,305.31.13C306.07-.2,306.42.09,306.33,1Z"/><path class="a" d="M174.22,20.61a18.72,18.72,0,0,1,1.38-3.06,2.78,2.78,0,0,1,1.61-1.21c7-3.28,14.14-6.42,21.41-9.11,4.14-1.52,8.17-3.34,12.4-4.61A61.16,61.16,0,0,0,216.76.34c.23-.09.46-.29.69,0a.61.61,0,0,1,0,.73c-.6.89-1.22,1.76-1.85,2.63a1.18,1.18,0,0,1-.65.37c-3.21,1-6.27,2.3-9.42,3.42-2.58.92-5.09,2-7.68,3-2.81,1-5.55,2.25-8.32,3.4S184,16,181.25,17.27a59.54,59.54,0,0,0-6.8,3.35S174.31,20.62,174.22,20.61Z"/><path class="a" d="M564,59.81a2.92,2.92,0,0,1-.13.34c-.46.88-.93,1.74-1.39,2.62-.25.48-.57.58-1,.25-.68-.46-1.37-.88-2.05-1.34a1.47,1.47,0,0,0-2.37.58,11,11,0,0,1-1,1.65c-.61.74-.91.8-1.77.37l-2.63-1.37a1,1,0,0,1-.53-1.37c.27-.63.53-1.26.85-1.87.67-1.28.7-1.28,1.94-.66.85.41,1.67.88,2.53,1.26,1.23.54,1.61.37,2.16-.87.21-.47.39-.95.62-1.41.41-.81.87-.94,1.62-.47.95.59,1.89,1.2,2.83,1.79C563.84,59.43,564,59.54,564,59.81Z"/><path class="a" d="M471,50.58a39.08,39.08,0,0,0-1.61-4.43,7.79,7.79,0,0,1,7.56-11,23.85,23.85,0,0,1,6.48,1.48c3.48,1.19,6.95,2.43,10.42,3.65a28.07,28.07,0,0,0,5.49,1.36c1.22.17,1.35.39.86,1.5a14.72,14.72,0,0,0-.7,1.37,1.7,1.7,0,0,1-1.86,1.35,7.88,7.88,0,0,0-3,1c-3.55,1.54-6.92,3.42-10.34,5.22a32.29,32.29,0,0,1-8,3.18,6.69,6.69,0,0,1-.75.16,6,6,0,0,0-1.89.29c-.54.29-.41,1.17-.92,1.69a.75.75,0,0,1-.3-.86c.16-.83-.34-1-1-1.12A6.88,6.88,0,0,1,466.09,51a19.86,19.86,0,0,1-1-4.49c-.37-2.85-.48-5.71-.73-8.56-.16-1.83,0-3.69-.15-5.54s-.06-3.93-.2-5.9c-.18-2.81-.54-5.61-.72-8.42A57.88,57.88,0,0,0,461.93,9c-.38-1.67-.8-3.32-1.17-5a1.59,1.59,0,0,1,0-.89A7.37,7.37,0,0,1,462.48.21a12.18,12.18,0,0,1,1.57,4.06c.6,3.11,1,6.24,1.43,9.37.56,4.22.51,8.47.95,12.68.23,2.31.21,4.61.36,6.92.11,1.61,0,3.25.12,4.87.25,2.52.3,5.06.76,7.55a14.72,14.72,0,0,0,.65,2.36,5,5,0,0,0,2.34,2.79c.08.09.18.17.29.08S471,50.68,471,50.58Zm20.91-6.21c-.13-.37-.43-.33-.66-.42-2.82-1-5.62-2.08-8.48-3-2.44-.77-4.87-1.68-7.49-1.7a8.25,8.25,0,0,0-4.61,1.37.76.76,0,0,0-.35,1.08c.28.63.57,1.25.82,1.89a40.67,40.67,0,0,1,2,6.65c.2.91.3,1,1.19.93a17.58,17.58,0,0,0,3.05-.47,40.24,40.24,0,0,0,8-3.16C487.47,46.43,489.68,45.43,491.86,44.37Z"/><path class="a" d="M388.52,60.35a2.92,2.92,0,0,1-.13.34c-.46.87-.93,1.74-1.39,2.62-.25.48-.57.58-1,.25-.68-.46-1.37-.89-2.05-1.34a1.47,1.47,0,0,0-2.37.58,10.26,10.26,0,0,1-1,1.65c-.61.74-.91.8-1.77.37s-1.75-.93-2.63-1.37a.94.94,0,0,1-.53-1.37c.26-.63.53-1.26.85-1.87.67-1.28.7-1.28,1.94-.67.84.42,1.67.89,2.53,1.27,1.23.54,1.61.37,2.16-.87.21-.47.39-.95.62-1.41.4-.81.87-.94,1.62-.47.95.59,1.88,1.2,2.83,1.79C388.35,60,388.52,60.08,388.52,60.35Z"/><path class="a" d="M441.8,31.5a2.43,2.43,0,0,1-.18.66,20,20,0,0,1-1.22,2c-.62.84-.9.86-1.78.28s-1.76-1.2-2.68-1.75a.78.78,0,0,1-.38-1.16,17.61,17.61,0,0,1,1.53-2.66c.3-.41.63-.55,1.08-.25l3.22,2.09A.85.85,0,0,1,441.8,31.5Z"/><path class="a" d="M483,61.32a2.86,2.86,0,0,1-.19.67,18.71,18.71,0,0,1-1.22,1.95c-.62.85-.9.86-1.78.29s-1.76-1.2-2.67-1.75c-.5-.31-.65-.64-.4-1.16a18.57,18.57,0,0,1,1.54-2.66c.3-.41.63-.55,1.08-.25l3.23,2.09A.87.87,0,0,1,483,61.32Z"/><path class="a" d="M649.73,60.78a2.45,2.45,0,0,1-.19.67,22,22,0,0,1-1.21,2c-.63.84-.9.86-1.79.28s-1.76-1.2-2.67-1.75a.79.79,0,0,1-.39-1.16A17.67,17.67,0,0,1,645,58.12a.7.7,0,0,1,1.08-.25L649.32,60A.87.87,0,0,1,649.73,60.78Z"/><path class="a" d="M623.22,61.32A2.86,2.86,0,0,1,623,62a20.47,20.47,0,0,1-1.21,1.95c-.63.85-.91.86-1.79.29s-1.76-1.2-2.67-1.75c-.5-.31-.64-.64-.39-1.16a18.51,18.51,0,0,1,1.53-2.66c.3-.41.63-.55,1.09-.25l3.22,2.09A.87.87,0,0,1,623.22,61.32Z"/><path class="a" d="M256.57,51.37a2.8,2.8,0,0,1-.19.66,18.85,18.85,0,0,1-1.22,2c-.62.84-.9.86-1.78.29s-1.76-1.21-2.68-1.76a.78.78,0,0,1-.38-1.16,17,17,0,0,1,1.53-2.65c.3-.42.63-.55,1.08-.26l3.23,2.09A.89.89,0,0,1,256.57,51.37Z"/><path class="a" d="M202.9,33.61a2.43,2.43,0,0,1-.18.66,18.85,18.85,0,0,1-1.22,2c-.63.84-.9.86-1.78.28S198,35.31,197,34.76a.79.79,0,0,1-.39-1.16,18.57,18.57,0,0,1,1.54-2.66.71.71,0,0,1,1.08-.25l3.22,2.09A.85.85,0,0,1,202.9,33.61Z"/><path class="a" d="M242.76,50.43a3,3,0,0,1-.13.35l-1.39,2.61c-.26.48-.57.58-1,.25-.68-.46-1.37-.88-2.05-1.34a1.47,1.47,0,0,0-2.37.59,10.63,10.63,0,0,1-1,1.64c-.61.74-.91.8-1.77.37s-1.75-.92-2.63-1.36a1,1,0,0,1-.53-1.38c.26-.63.53-1.26.85-1.86.67-1.28.7-1.28,1.94-.67.84.41,1.67.88,2.53,1.26,1.22.55,1.61.37,2.16-.87.21-.47.39-1,.62-1.41.41-.8.87-.94,1.62-.47,1,.6,1.88,1.21,2.83,1.8C242.59,50.06,242.76,50.16,242.76,50.43Z"/><path class="a" d="M311.39,60.35a2.92,2.92,0,0,1-.13.34c-.47.87-.94,1.74-1.39,2.62-.26.48-.57.58-1,.25-.67-.46-1.37-.89-2.05-1.34a1.47,1.47,0,0,0-2.37.58,10.26,10.26,0,0,1-1,1.65c-.6.74-.9.8-1.77.37s-1.74-.93-2.62-1.37a1,1,0,0,1-.54-1.37c.27-.63.54-1.26.85-1.87.68-1.28.7-1.28,1.95-.67.84.42,1.66.89,2.52,1.27,1.23.54,1.61.37,2.16-.87.21-.47.4-.95.63-1.41.4-.81.87-.94,1.62-.47.94.59,1.88,1.2,2.83,1.79C311.22,60,311.39,60.08,311.39,60.35Z"/><path class="a" d="M355.81,53.11a2.51,2.51,0,0,1,2.12-1,2.48,2.48,0,0,1,1.82.67,2.28,2.28,0,0,1,.68,1.68A3,3,0,0,1,358.78,57a2.06,2.06,0,0,0-1.18,1.66,3.92,3.92,0,0,0,2,3.18c.78.54,1.17.92,1.17,1.16a1,1,0,0,1-.08.37c-.16.44-.34.67-.54.67a1.56,1.56,0,0,1-.6-.25,8.84,8.84,0,0,1-4.53-8.09A4.21,4.21,0,0,1,355.81,53.11Z"/><path class="a" d="M124.23,20.31A2.8,2.8,0,0,1,124,21a17.85,17.85,0,0,1-1.22,2c-.62.84-.9.86-1.78.29s-1.77-1.2-2.68-1.76c-.49-.3-.64-.64-.39-1.15a17.54,17.54,0,0,1,1.54-2.66.71.71,0,0,1,1.08-.26l3.23,2.09A.9.9,0,0,1,124.23,20.31Z"/><path class="a" d="M596,42.7a2.26,2.26,0,0,1-.18.66,17.85,17.85,0,0,1-1.22,2c-.62.85-.9.87-1.78.29s-1.77-1.2-2.68-1.75a.79.79,0,0,1-.39-1.16A18.57,18.57,0,0,1,591.24,40a.7.7,0,0,1,1.08-.25l3.22,2.09A.84.84,0,0,1,596,42.7Z"/><path class="a" d="M615,26.09a3,3,0,0,1-.13.35l-1.39,2.61c-.26.48-.57.58-1,.25-.68-.46-1.37-.88-2-1.34a1.47,1.47,0,0,0-2.37.59,10.63,10.63,0,0,1-1,1.64c-.61.74-.91.8-1.77.37s-1.75-.92-2.63-1.36a1,1,0,0,1-.53-1.38c.27-.63.53-1.26.85-1.86.67-1.29.7-1.29,1.94-.67.84.42,1.67.88,2.53,1.26,1.23.55,1.61.37,2.16-.87.21-.47.4-.95.62-1.41.4-.8.87-.94,1.62-.47,1,.59,1.89,1.2,2.83,1.8C614.79,25.71,615,25.82,615,26.09Z"/><path class="a" d="M97.06,51.34a47.52,47.52,0,0,0-5.81-1.77c-2.43-.39-5,0-6.26,1.55,0,.35-.23.51-.29.81.63,2.63,3.63,2.89,6.47,3.31.13.47-.22.84-.36,1.25a6.15,6.15,0,0,1-2.21-.29C88,58,89.5,59,91.39,58.85c-.18-.33-.72-.31-1.1-.44a3.11,3.11,0,0,1,.29-1.33c1.39.34,3.33,1.45,4.5.3-.22-.32-.65-.18-1-.22a12.42,12.42,0,0,1-2.21-.59c-.1-1.81,1.74-2.21,3.09-2.8-.45-.33-.34-1.47,0-1.84a2.82,2.82,0,0,1,2.43.66A1.58,1.58,0,0,1,97,54.07c.38.25,1,.32,1.25.66a7.39,7.39,0,0,1-.51,1.1,7.07,7.07,0,0,1-1.11-.51c-.06-.53.2-.74.29-1.11a28.58,28.58,0,0,1-3,1.4c.81.33,2,.07,2.21,1a2.24,2.24,0,0,1-.59,2c.26.3.74.38,1,.66.89-.63,2.23-.81,3.24-1.33-1.11-.2-2.57,0-3.46-.44a8.14,8.14,0,0,1,.36-1.18,6.91,6.91,0,0,0,2.21-.36c0-1.53-1.25-3.07-.22-4.35.39.1.23.76.52,1,.4,0,.57-.12,1-.07a1.64,1.64,0,0,1-.73,1.25,4.93,4.93,0,0,1,0,2.72,25.74,25.74,0,0,0,3.83,0c0,.55-.23.81-.3,1.25-.4-.08-.46.18-.74.22.21.78.77.85,1.4.52.26-.14.38-.43.59-.37a2.11,2.11,0,0,1-.73,1.33c.57.65,1.7.75,2.28,1.39a5.05,5.05,0,0,1-.3,3c-1.36.2-3.17,2-4.78,2.21-1.23.16-1.43-1-1-2-.89.44-3.57,1.88-4-.14-.3,0-.24.34-.51.36a20.4,20.4,0,0,1-8.61.52c3.06-.47,6.58-.48,9-1.62A6.43,6.43,0,0,1,96,60.84c-1.09.4-3,3.11-4.27,1.1A3.38,3.38,0,0,1,92.2,60c-1.84.51-4.18-.18-4.26-2.06a12.11,12.11,0,0,1,.29-1.7c-1.72-.8-4.09-1.14-4.2-3.38a3.54,3.54,0,0,1,.67-2.06c.93-1.51,2.3-2.38,4.78-2.21a18.26,18.26,0,0,1,5,1.32C95.51,50.32,96.62,50.63,97.06,51.34Zm6.63,9.72c-.92-.45-1.8-.94-2.06-1.91.06-.2.35-.84.07-.89-.16.21-.55.19-.66.44a3.47,3.47,0,0,1,.73,1.25,4.84,4.84,0,0,1-.59,3.17,4.44,4.44,0,0,1-.81.51c0,.34-.21.48-.14.89a3.34,3.34,0,0,0,2.72-.89c.66-.27,1.27-.62,1.84-.88.19-.08.48-.15.59-.37C105.2,61.61,104.32,61.37,103.69,61.06Zm-10.9-1.25c-.37.63-.39,1.4.22,1.54.89.21,1.94-1.1,2.29-1.4A2.17,2.17,0,0,0,92.79,59.81Zm4.57.22a3.13,3.13,0,0,1-.74,3.46,3.6,3.6,0,0,0,2.8-.59c.61-.31,1.15-.68,1.62-1-.05-.25.09-.68-.07-.81-.17.44-.36.8-.74.88-1.37.31-1.54-1.58-1-2.57C98.54,59.55,98.05,59.89,97.36,60Zm2.35.44a.75.75,0,0,0,.88,0C100.66,59.6,99.64,59.59,99.71,60.47Zm-3.53,2.21a1,1,0,0,0,.29-1.92A2.85,2.85,0,0,0,96.18,62.68Z"/><path class="a" d="M101.92,54.29a1.78,1.78,0,0,1-.51,1.25c-.36-.14-.56-.43-1-.52a3,3,0,0,1,.44-1.25A2.86,2.86,0,0,1,101.92,54.29Z"/><path class="a" d="M575,15a2.4,2.4,0,0,1-.18.67,18.71,18.71,0,0,1-1.22,1.95c-.62.84-.9.86-1.78.29s-1.77-1.2-2.68-1.75c-.49-.31-.64-.64-.39-1.16a18.57,18.57,0,0,1,1.54-2.66.7.7,0,0,1,1.08-.25c1.08.69,2.15,1.39,3.22,2.09A.84.84,0,0,1,575,15Z"/><path class="a" d="M107.94,9.67a18.59,18.59,0,0,1,2,2.52,11.8,11.8,0,0,1-1.72,3.44c-.84-.69-1.17-1.89-2.18-2.41a46.25,46.25,0,0,1-6.08,7c-1.66,1.54-3.4,3-5.27,4.47-1.4,1.07-3,1.84-4.59,2.87-.85.54-1.66,1.12-2.53,1.61s-1.88.9-2.75,1.49S83.37,32.2,82.25,32c1.43-2.16,3.74-3.33,5.85-4.7.5-.32,1-.79,1.49-1.15,5.59-3.88,11.2-8.16,15.25-13.76A19.36,19.36,0,0,0,102,10.7c-2-1.24-3.2-3-1.84-5.62a11.45,11.45,0,0,1,1.61-2.4,4.53,4.53,0,0,1,1.72-1.38c.75-.47,2-1.4,3.44-.92s2.23,3.26,2.06,5.39A12.52,12.52,0,0,1,107.94,9.67Zm-2.75-5.39a2.91,2.91,0,0,0-3.1,1.26,15.63,15.63,0,0,0,4.13,2.87A5.78,5.78,0,0,0,105.19,4.28Z"/><path class="a" d="M82.79,20.85c-.38,2-2.06,3.73-3.48,5a11.86,11.86,0,0,1-1.55,1.29c-1.9,1.05-4.45.35-7,.26.52-1.39,2.42-1.47,3.88-1.81a14.7,14.7,0,0,0,4.13-1.55c-2.07-.71-5-.31-7-.26,0-1.45,1.32-2.62,1.8-4C75.54,19.06,82.34,19.52,82.79,20.85Z"/><path class="a" d="M470.33,15.76c.1,0,.12.05.12.13a13.93,13.93,0,0,1,6.07,6.19,15.69,15.69,0,0,1,.91,10.46c-.78-.18-.4-1.31-.39-1.93.13-6-3-10-7.1-12.66A6.58,6.58,0,0,1,470.33,15.76Z"/><path class="a" d="M458,12.68c-.55-.11-.53-.79-1.06-.93-1.84-.07-2.35,1.18-3.58,1.73A5.8,5.8,0,0,0,457,14.93c1.72.18,3.26-1.08,4.5-1.06,0,1.05-.57,1.46-.92,2.12-1.72.63-3.31,1.38-4.9,2.12-.8.4-1.43,1.52-2.26,1.46.44-.84.5-2.07,1.33-2.52-1.36-.76-2.78-.95-2.91-2.12a6,6,0,0,1,.79-2.38,13.91,13.91,0,0,1,4-3.05c1.18-.26,2.27.32,2.39,1.06S458.22,11.85,458,12.68Z"/><path class="a" d="M69.66,11C69.45,8.75,72.12,6.82,72,4.52a1.67,1.67,0,0,0-.85-1.45c-.85.12-1.07.87-1.83,1.09-.71-1.78,2-4.46,3.53-2.92.65.68.73,2.43.48,3.53a19.65,19.65,0,0,1-2.43,5C70.54,10.28,70.34,11.12,69.66,11Z"/><path class="a" d="M420.21,56.19c.11.05.23.11.25.26-.14.8-.81,1.08-1.16,1.67-4.45,1.74-8.76,3.62-13,5.55-.72.33-1.49.58-2.19.91s-1.24,1-2.07,1c-.05-1.13.67-1.48.9-2.32C408.63,60.88,414.19,58.3,420.21,56.19Z"/><path class="a" d="M622.71.42c-.06.85-1.08,1.63-1.62,2.38-.56-.1-13.55,4.82-17.2,6.24-.61.24-1.18.53-1.78.78-1.52.64-5.73,2.89-6.61,2.88a13.85,13.85,0,0,1,1.18-2.48,115,115,0,0,1,11.77-4.87C612,4.11,620.08,1,620.57.84A6,6,0,0,1,622.71.42Z"/><path class="a" d="M51.28,21.07c-1.23-.37-1.11-1.94-2.45-1.93S47.16,21.29,47,23.27s.36,4.19-.91,4.78c-.62-.2-.59-1-.77-1.43A9.08,9.08,0,0,0,42.5,23c-1.35.47-3.61-.1-4.26-1.16A7.22,7.22,0,0,1,38.63,19c3.71-.09,5.63,2.7,7.23,5.16.38-1.57.19-3.55.64-5.16.31-1.1,1-2.71,2.58-2.58S52.84,19.21,51.28,21.07Z"/><path class="a" d="M415.51,35.75c-1.22-.37-1.1-1.94-2.45-1.94s-1.66,2.16-1.81,4.13.36,4.19-.9,4.78c-.63-.19-.6-1-.77-1.42a9.08,9.08,0,0,0-2.84-3.61c-1.36.46-3.61-.11-4.27-1.17a7.67,7.67,0,0,1,.39-2.84c3.72-.09,5.64,2.7,7.23,5.17.38-1.58.2-3.56.65-5.17.3-1.09,1-2.7,2.58-2.58S417.07,33.89,415.51,35.75Z"/><path class="a" d="M93.73,5.13c-1.23-.37-1.11-1.94-2.45-1.94s-1.67,2.16-1.81,4.13.36,4.19-.9,4.78c-.63-.19-.61-1-.78-1.42A9.08,9.08,0,0,0,85,7.07C83.6,7.53,81.34,7,80.69,5.9a7.28,7.28,0,0,1,.39-2.84c3.71-.08,5.64,2.71,7.23,5.17.38-1.58.19-3.56.64-5.17C89.26,2,90,.36,91.54.48S95.29,3.27,93.73,5.13Z"/><path class="a" d="M647.13,23.34c-1.24-.37-1.11-1.94-2.46-1.93s-1.66,2.15-1.8,4.13.35,4.19-.91,4.78c-.63-.2-.6-1-.78-1.43a9.06,9.06,0,0,0-2.84-3.61c-1.35.47-3.6-.1-4.26-1.16a7.61,7.61,0,0,1,.39-2.84c3.71-.09,5.64,2.7,7.23,5.16.38-1.57.2-3.55.64-5.16.31-1.1,1-2.71,2.59-2.59S648.68,21.49,647.13,23.34Z"/><path class="a" d="M560.5.6c.42,2.45-2.91,5.72-1.57,8.62.2.43.78,1.21,1.48,1.13.87-.1.65-1,1.31-1.48.36.15.15.64.09,1-.28,1.29-.7,3.38-2.36,3.31-1.46-.06-2.22-2-2.17-3.75.07-3.11,2.3-6.5,2.78-8.7,0-.1.17-.06.18-.18A.41.41,0,0,0,560.5.6Z"/><path class="a" d="M251.08,1.5c.42,2.45-2.91,5.72-1.57,8.62.21.44.78,1.21,1.49,1.13.87-.09.65-1,1.3-1.47.37.14.15.64.09,1C252.12,12,251.7,14.11,250,14c-1.46-.06-2.22-2-2.18-3.74.08-3.11,2.31-6.51,2.79-8.71,0-.09.17-.06.17-.17A.4.4,0,0,0,251.08,1.5Z"/><path class="a" d="M658,9.36c.42,2.45-2.91,5.72-1.56,8.63.2.43.77,1.21,1.48,1.13.87-.1.65-1,1.3-1.48.37.14.16.64.09,1-.27,1.28-.68,3.37-2.35,3.3-1.46-.06-2.22-2-2.18-3.74.08-3.11,2.31-6.51,2.79-8.71,0-.09.17-.06.18-.17A.36.36,0,0,0,658,9.36Z"/><path class="a" d="M463.3,54.42c.34,1.93-2.29,4.51-1.23,6.79.16.34.61,1,1.17.89s.51-.8,1-1.16c.28.11.12.5.07.75-.22,1-.55,2.66-1.86,2.61-1.15,0-1.74-1.6-1.71-2.95.06-2.45,1.82-5.13,2.19-6.86,0-.08.14-.05.14-.14A.32.32,0,0,0,463.3,54.42Z"/><path class="a" d="M240.15,4.4c-1.09-.33-1-1.74-2.19-1.73s-1.49,1.93-1.61,3.69.32,3.75-.81,4.28c-.56-.18-.54-.91-.7-1.27a8.1,8.1,0,0,0-2.54-3.24c-1.21.42-3.22-.09-3.81-1a6.74,6.74,0,0,1,.35-2.54c3.32-.08,5,2.42,6.46,4.62.35-1.41.18-3.18.58-4.62.27-1,.93-2.42,2.31-2.31S241.55,2.74,240.15,4.4Z"/><path class="a" d="M338.76,36.42c-1.1-.33-1-1.74-2.19-1.74s-1.49,1.93-1.62,3.7.32,3.75-.81,4.27c-.56-.17-.53-.9-.69-1.27a8.15,8.15,0,0,0-2.54-3.23c-1.21.42-3.23-.09-3.81-1a6.69,6.69,0,0,1,.35-2.54c3.32-.08,5,2.42,6.46,4.62.34-1.41.18-3.18.58-4.62.27-1,.92-2.42,2.31-2.31S340.16,34.76,338.76,36.42Z"/><path class="a" d="M300.59,29.65c.35,2-2.41,4.73-1.29,7.13.16.35.64,1,1.22.93s.54-.84,1.08-1.22c.3.12.12.53.07.79-.22,1.06-.56,2.79-1.94,2.73-1.21,0-1.83-1.67-1.8-3.09.07-2.57,1.91-5.38,2.31-7.2,0-.08.13,0,.14-.14A.33.33,0,0,0,300.59,29.65Z"/><path class="a" d="M666.17.77c-.11,1.09-1.44,2.06-2.16,3-.71-.14-17.58,5.71-22.31,7.42-.8.28-1.54.63-2.32.94-2,.77-7.46,3.51-8.58,3.46a17.79,17.79,0,0,1,1.6-3.14,144.93,144.93,0,0,1,15.29-5.84c4.64-1.47,15.09-5.17,15.73-5.37A7.68,7.68,0,0,1,666.17.77Z"/><path class="a" d="M349.25,56.19c.11.05.23.11.25.26-.13.8-.81,1.08-1.16,1.67-4.44,1.74-8.76,3.62-13,5.55-.72.33-1.49.58-2.19.91s-1.24,1-2.07,1c-.05-1.13.67-1.48.9-2.32C337.67,60.88,343.23,58.3,349.25,56.19Z"/><path class="a" d="M434.16,8.72c.11.06.23.12.25.26-.13.81-.81,1.08-1.16,1.68-4.44,1.74-8.75,3.62-13,5.55-.73.33-1.48.58-2.19.91s-1.24.94-2.07,1c-.05-1.13.67-1.48.91-2.32C422.59,13.42,428.14,10.84,434.16,8.72Z"/><path class="a" d="M194.37.7c-.06.85-1.08,1.64-1.62,2.38-.56-.1-13.55,4.81-17.2,6.24-.61.24-1.18.53-1.79.78-1.51.64-5.72,2.89-6.6,2.87a14.09,14.09,0,0,1,1.18-2.47,115,115,0,0,1,11.77-4.87c3.58-1.23,11.64-4.33,12.12-4.5A5.86,5.86,0,0,1,194.37.7Z"/><path class="a" d="M248.69,35.16c-.19-2,2.25-3.77,2.11-5.87A1.55,1.55,0,0,0,250,28c-.77.12-1,.8-1.66,1-.65-1.62,1.84-4.06,3.21-2.66.6.62.67,2.22.44,3.21a18.08,18.08,0,0,1-2.21,4.55C249.5,34.55,249.31,35.31,248.69,35.16Z"/><path class="a" d="M606.39,64.55c-.19-2,2.25-3.77,2.11-5.87a1.53,1.53,0,0,0-.78-1.33c-.77.11-1,.8-1.66,1-.65-1.63,1.84-4.07,3.21-2.66.6.61.68,2.21.44,3.21a17.68,17.68,0,0,1-2.21,4.54C607.2,63.93,607,64.7,606.39,64.55Z"/><path class="a" d="M633.13.53c.33,1.93-2.3,4.51-1.24,6.79.16.35.61,1,1.17.89s.51-.8,1-1.16c.29.11.12.51.07.75-.21,1-.55,2.66-1.86,2.61-1.15-.05-1.75-1.6-1.71-2.95C630.65,5,632.4,2.33,632.78.6c0-.08.14,0,.14-.14A.33.33,0,0,0,633.13.53Z"/><path class="a" d="M655.22,38c-.18-1.93,2.16-3.61,2-5.63a1.5,1.5,0,0,0-.75-1.27c-.74.11-.94.76-1.6,1-.61-1.56,1.77-3.9,3.09-2.55a4,4,0,0,1,.42,3.08,17.36,17.36,0,0,1-2.12,4.35C656,37.37,655.81,38.11,655.22,38Z"/><path class="a" d="M621.52,8.72c.11.06.23.12.26.26-.14.81-.82,1.08-1.17,1.68-4.44,1.74-8.75,3.62-13,5.55-.72.33-1.48.58-2.19.91s-1.24.94-2.07,1c0-1.13.67-1.48.9-2.32C610,13.42,615.5,10.84,621.52,8.72Z"/><path class="a" d="M168.41,10c-.2-2,2.24-3.78,2.1-5.87a1.52,1.52,0,0,0-.78-1.33c-.77.11-1,.79-1.66,1-.65-1.62,1.84-4.06,3.22-2.65.6.61.67,2.21.44,3.21a18,18,0,0,1-2.22,4.54C169.21,9.36,169,10.12,168.41,10Z"/><path class="a" d="M659.23,54c.34,1.93-2.29,4.5-1.23,6.79.16.34.61,1,1.17.89s.51-.8,1-1.17c.29.12.11.51.07.76-.22,1-.55,2.66-1.86,2.61-1.15-.05-1.75-1.6-1.71-3,.06-2.45,1.81-5.13,2.19-6.86,0-.08.14-.05.14-.14A.3.3,0,0,0,659.23,54Z"/><path class="a" d="M264.86,20.74c.33,1.93-2.3,4.51-1.24,6.79.16.35.61,1,1.17.9s.51-.81,1-1.17c.28.12.12.51.07.75-.21,1-.54,2.67-1.86,2.61-1.15-.05-1.75-1.6-1.71-2.95.06-2.45,1.82-5.13,2.2-6.86,0-.07.13,0,.13-.14A.33.33,0,0,0,264.86,20.74Z"/><path class="a" d="M307,24.64c-.21-2.2,2.46-4.13,2.31-6.43a1.68,1.68,0,0,0-.85-1.46c-.85.12-1.07.87-1.82,1.09-.71-1.78,2-4.45,3.52-2.91.66.67.74,2.43.49,3.52a19.85,19.85,0,0,1-2.44,5C307.85,24,307.64,24.81,307,24.64Z"/><path class="a" d="M558.5,20.91a2.92,2.92,0,0,1-.13.34c-.46.87-.93,1.74-1.39,2.62-.26.48-.57.58-1,.25-.67-.46-1.36-.89-2-1.34a1.47,1.47,0,0,0-2.37.58,11,11,0,0,1-1,1.65c-.61.74-.91.8-1.77.37L546.12,24a1,1,0,0,1-.53-1.37c.26-.63.53-1.26.85-1.87.67-1.28.7-1.28,1.94-.67.84.42,1.67.89,2.53,1.27,1.22.54,1.61.37,2.16-.87.21-.47.39-.95.62-1.41.41-.81.87-.94,1.62-.47,1,.59,1.88,1.2,2.83,1.79C558.33,20.53,558.5,20.64,558.5,20.91Z"/><path class="a" d="M453.36,26.61a2.74,2.74,0,0,1-.18.66,17.85,17.85,0,0,1-1.22,2c-.63.84-.9.86-1.78.29s-1.77-1.2-2.68-1.76c-.49-.3-.64-.64-.39-1.15A16.73,16.73,0,0,1,448.65,24a.71.71,0,0,1,1.08-.26L453,25.78A.87.87,0,0,1,453.36,26.61Z"/><path class="a" d="M411.33,4.43a2.39,2.39,0,0,1-.19.66,20.62,20.62,0,0,1-1.21,2c-.63.84-.91.86-1.79.29s-1.76-1.2-2.67-1.76c-.5-.3-.65-.64-.39-1.16a17.88,17.88,0,0,1,1.53-2.65.72.72,0,0,1,1.09-.26c1.07.7,2.14,1.4,3.22,2.09A.89.89,0,0,1,411.33,4.43Z"/><path class="a" d="M336.35,4.43a2.34,2.34,0,0,1-.18.66,20.71,20.71,0,0,1-1.22,2c-.63.84-.9.86-1.78.29s-1.77-1.2-2.68-1.76a.79.79,0,0,1-.39-1.16,17.94,17.94,0,0,1,1.54-2.65.71.71,0,0,1,1.08-.26l3.22,2.09A.87.87,0,0,1,336.35,4.43Z"/><path class="a" d="M459.43,42.24c-.47-1.1-1-2.2-1.41-3.32-.16-.39-.44-.82-.15-1.29.47,0,.74.35,1.2.43a1.06,1.06,0,0,0-.06-1.25,42.1,42.1,0,0,0-3.32-4.75c-.3-.4-.6-.31-.78.09a16.4,16.4,0,0,0-1.06,3.29,1.19,1.19,0,0,0,.21,1,6.21,6.21,0,0,1,.82,2.13,28.53,28.53,0,0,0,2.45,7.28,14.2,14.2,0,0,1,.81,2.15,1.55,1.55,0,0,1-.45,1.86c-.46.39-.87.83-1.34,1.21a55.07,55.07,0,0,1-10.07,6.45,29.87,29.87,0,0,1-6,2.33,20.27,20.27,0,0,1-7.15.5c-4.28-.42-7.52-2.36-9.34-6.44a12.81,12.81,0,0,1-1-5.09c.77-.35,1.53-.72,2.27-1.13a5.9,5.9,0,0,0,3.08-3.77,11,11,0,0,0,.25-4.6c-.05-.28-.23-.57.13-.93a4.61,4.61,0,0,1,1.11,1.09c1,1.16,2,2.36,3.1,3.45a12,12,0,0,0,7.09,3.35,7,7,0,0,0,6.49-2.66c1.06-1.25,1.72-2.78,2.82-4a7.23,7.23,0,0,0,1.6-3.29c.14-.55.33-1.29-.25-1.52s-1,.42-1.32.94a27.61,27.61,0,0,1-2.93,3.88,5.66,5.66,0,0,1-1.4,1.12c-2.81,1.71-5.6,1.31-8.34-.1A15.84,15.84,0,0,1,432,37c-.95-1-1.82-2.16-2.8-3.19-1.61-1.67-3.31-3.25-5-4.84-2.1-2-4.3-3.83-6.55-5.61-3.16-2.51-6.41-4.9-9.64-7.35a7.62,7.62,0,0,1,2.15-1.61,43.85,43.85,0,0,1,6.66-3c2.43-1,4.91-1.82,7.38-2.65,4.4-1.46,8.92-2.47,13.42-3.59A7.1,7.1,0,0,1,441.71,5a1.54,1.54,0,0,1,.79,2.55c-.36.48-.77.93-1.14,1.39a45.44,45.44,0,0,0-4.48,6.29,3.75,3.75,0,0,0-.39.74l-.29.1c-.48,1.37-1.82,2.55-1.8,4,1.93-.05,4.9-.45,7,.26a14.7,14.7,0,0,1-4.13,1.55c-1.46.34-3.36.42-3.87,1.8,2.52.09,5.07.79,7-.25a10.64,10.64,0,0,0,1.54-1.3c1.43-1.31,3.11-3.06,3.49-5-.38-1.11-5.2-1.62-7.89-1.31a68.73,68.73,0,0,1,4.58-6.16A14,14,0,0,0,445,4.21,2.58,2.58,0,0,0,443.48,1a4.85,4.85,0,0,0-2.64-.27c-1.54.22-3,.59-4.54.93a140.5,140.5,0,0,0-21.55,6.44A27.16,27.16,0,0,0,409.17,11a5.32,5.32,0,0,0-2.31,3.27,12,12,0,0,0-.21,1.65c-.12,1.48-.2,3,.77,4.28a28,28,0,0,0,3.59,4,162.06,162.06,0,0,1,12.67,12.47A18,18,0,0,1,426.49,41c.8,1.64.62,2-1,2.88-.5.25-1,.48-1.52.69l-1,.39c.27-1.52.85-3,1.27-4.46.09-.31.3-.62-.06-1a3.33,3.33,0,0,0-1.06,1.84c-.42,1.36-.88,2.7-1.22,4.08-1.26.52-2.54,1-3.82,1.5a39.12,39.12,0,0,0-11.93,7.25,39.68,39.68,0,0,1-6.51,5,8.35,8.35,0,0,1-2.52,1,4,4,0,0,1-4.7-4.11,14.27,14.27,0,0,1,1.45-5.56c.73-.48,1.46-1,2.18-1.49a11.24,11.24,0,0,0,4.74-7.09,3.59,3.59,0,0,0-.95-3.43,3.82,3.82,0,0,0-2.3-1c-1.66-.25-3.34-.31-5-.7a11.91,11.91,0,0,1-3.12-1.19,2.06,2.06,0,0,1-1-2.89c.19-.48.36-1,.57-1.44a13.24,13.24,0,0,1,3.68-5.06,8.63,8.63,0,0,1,3.24-1.78,2.06,2.06,0,0,1,2,.46c.2.17.36.37.54.55.65.68.89.65,1.21-.25s.4-1.59.68-2.35a1.09,1.09,0,0,0-.29-1.37,7.08,7.08,0,0,1-.5-.59c-.93-1-1.52-1.12-2.87-.7A10.73,10.73,0,0,0,392,23.27a24,24,0,0,0-5.75,11.88,4.39,4.39,0,0,0,2.54,5.21,15.75,15.75,0,0,0,3.68,1.16c1.31.23,2.64.33,4,.47a3.49,3.49,0,0,1,1.87.73,7.8,7.8,0,0,1-1.93,1.81,54.92,54.92,0,0,1-12.15,6.69,19.28,19.28,0,0,1-12.58.91A8.75,8.75,0,0,1,367,49a9.1,9.1,0,0,1-1.48-2.72,7.13,7.13,0,0,0,5-2.71c1.06-1.25,1.72-2.78,2.81-4a7,7,0,0,0,1.6-3.29c.14-.55.33-1.29-.24-1.52s-1,.42-1.33.94a27.54,27.54,0,0,1-2.92,3.88,5.66,5.66,0,0,1-1.4,1.12,7.23,7.23,0,0,1-4,1.12,22.91,22.91,0,0,1,.41-2.79,35.25,35.25,0,0,1,1.24-4.72,2.44,2.44,0,0,0,.16-.72c.49.2.76,0,1.23-.6a18.85,18.85,0,0,0,1.22-2,2.34,2.34,0,0,0,.18-.66.89.89,0,0,0-.4-.83l-3.23-2.09a.71.71,0,0,0-1.08.26,17.94,17.94,0,0,0-1.54,2.65.79.79,0,0,0,.39,1.16c.82.5,1.61,1,2.41,1.58-.21.17-.29.55-.44.79a2.53,2.53,0,0,0-.19.48,51.49,51.49,0,0,0-1.88,6.91c0,.12-.05.23-.07.34a10.94,10.94,0,0,1-2.73-1A16,16,0,0,1,356.3,37c-.95-1-1.81-2.16-2.8-3.19-1.6-1.67-3.3-3.25-5-4.84-2.09-2-4.29-3.83-6.54-5.61-3.16-2.51-6.41-4.9-9.65-7.35a7.81,7.81,0,0,1,2.16-1.61,43.85,43.85,0,0,1,6.66-3c2.43-1,4.91-1.82,7.38-2.65,4.39-1.46,8.92-2.47,13.41-3.59A7.13,7.13,0,0,1,366,5a1.54,1.54,0,0,1,.79,2.55c-.36.48-.77.93-1.15,1.39a45.44,45.44,0,0,0-4.48,6.29c-.23.43-.6.84-.36,1.4.56,0,.73-.48,1-.81a67.38,67.38,0,0,1,4.59-6.19,14.23,14.23,0,0,0,3-5.38A2.59,2.59,0,0,0,367.76,1a4.88,4.88,0,0,0-2.65-.27c-1.53.22-3,.59-4.53.93A140.5,140.5,0,0,0,339,8.06,27.5,27.5,0,0,0,333.44,11a5.34,5.34,0,0,0-2.3,3.27,12,12,0,0,0-.21,1.65c-.12,1.48-.2,3,.76,4.28a28.65,28.65,0,0,0,3.6,4A162.06,162.06,0,0,1,348,36.67a18,18,0,0,1,2.8,4.28c.81,1.64.63,2-1,2.88q-.75.38-1.53.69c-1.95.78-3.89,1.6-5.87,2.32a39.08,39.08,0,0,0-11.92,7.25,39.68,39.68,0,0,1-6.51,5,8.45,8.45,0,0,1-2.52,1A4,4,0,0,1,316.68,56a12.55,12.55,0,0,1,2.69-7.39l.32-.21A9.27,9.27,0,0,0,323.12,45a8.67,8.67,0,0,0,.64-5.53,3.36,3.36,0,0,0-2.7-2.8,17.1,17.1,0,0,0-2.92-.48,13.65,13.65,0,0,1-4.81-1.34,3.49,3.49,0,0,1-1.58-1.46,1.41,1.41,0,0,1-.12-1.35A17.12,17.12,0,0,1,317,25.17a8.71,8.71,0,0,1,2.74-1.66,3,3,0,0,1,3.44.61,7.15,7.15,0,0,0,.57.53c.58.51.79.48,1.14-.24.21-.41.3-.88.47-1.31.51-1.3.67-2.51-.82-3.32a.45.45,0,0,1-.18-.18,2.49,2.49,0,0,0-2.09-.79,7.33,7.33,0,0,0-3.7,1.38,20.12,20.12,0,0,0-5.94,6,14,14,0,0,0-2.06,4.11,27.73,27.73,0,0,0-.78,4.16,4.58,4.58,0,0,0,2.87,5.06,20.79,20.79,0,0,0,6.5,1.5,4.36,4.36,0,0,1,1.94.63c.79.51.8.92.09,1.54a20.43,20.43,0,0,1-4.65,3c-1.36.65-2.56,1.57-3.92,2.2-2.76,1.28-5.52,2.58-8.33,3.74a105.55,105.55,0,0,1-11.05,3.87c-3.79,1.09-7.61,2-11.48,2.82a71.72,71.72,0,0,1-9,1.55c-1.62.12-3.23.49-4.86.56-3.73.15-7.45.22-11.19.06-2.95-.13-5.9-.37-8.84-.62a42.72,42.72,0,0,1-9.3-1.92,75.56,75.56,0,0,1-12.51-5,79.44,79.44,0,0,1-8.13-5.2c-.23-.16-.41-.46-.86-.37a7.37,7.37,0,0,0-.12-1.62c-.24-1.29-.22-1.28,1-1.6a8.3,8.3,0,0,0,5.27-3.65c.18-.28.4-.54.62-.85a4.1,4.1,0,0,1,.46,1,8.36,8.36,0,0,0,5,4.94,9.42,9.42,0,0,0,8.84-1.12A18.24,18.24,0,0,0,242,41.24a4.8,4.8,0,0,1,1.54-1.5c.77,3.73,3.36,5.21,6.59,5a7.79,7.79,0,0,0,6-3.59,11.75,11.75,0,0,1,1.78-2.46,2.74,2.74,0,0,1,.55,1.21c.58,1.5,2.39,2.86,3.74,2.71a11.28,11.28,0,0,0,3-.7,36.1,36.1,0,0,0,6.53-3.6,9.67,9.67,0,0,1,1.58-.86c.28-.12.46-.13.64.15s.41.55.62.82a11.13,11.13,0,0,0,5.08,4,3.69,3.69,0,0,0,4.79-1.58,7.63,7.63,0,0,0,1.08-4.06,6.37,6.37,0,0,0-.27-2.67,5.13,5.13,0,0,0-5.37-3.19,10,10,0,0,0-4.3,1.22c-.54.29-.82.21-1.11-.33a21.4,21.4,0,0,1-1.71-3.74,3.9,3.9,0,0,1-.12-2.75,5.9,5.9,0,0,1,3.68-3c.81-.28,1.13-.12,1.56.67s.94,1.64,1.41,2.45A6.68,6.68,0,0,0,284,28.78,5.78,5.78,0,0,0,290.4,26a22.69,22.69,0,0,1,1.12-2.2c.14,0,.2,0,.22.07s.18.28.26.43a4.35,4.35,0,0,0,4.25,2.58,4.55,4.55,0,0,0,4.34-3.08,12.68,12.68,0,0,0,.9-3.87,4.29,4.29,0,0,0-.33-2.52c-.26-.44-.55-1-1.1-1s-.39.69-.61,1a.5.5,0,0,0-.09.23c-.14,1.11-.84,2.19-.13,3.34.26.41-.14.61-.41.8a4.18,4.18,0,0,1-4.26-.22,2.88,2.88,0,0,1-1-3.43,1.21,1.21,0,0,0,.08-1.17,3.41,3.41,0,0,0-.95,1.12,22.91,22.91,0,0,1-1.28,2.52c-.73,1.2-1.3,2.5-2.64,3.25A6.37,6.37,0,0,1,280.1,21a20.29,20.29,0,0,0-1-2.22,1.54,1.54,0,0,0-2.14-.8,8.36,8.36,0,0,0-2.87,1.71A11.34,11.34,0,0,0,270.59,28a16.48,16.48,0,0,0,1,5.38c.14.39.33.66-.15,1a24.91,24.91,0,0,1-7.13,3.5,6.83,6.83,0,0,1-.88.17c-2.44.3-3.64-.58-4.09-3-.07-.38,0-.85-.45-1s-.76.29-1,.62a5.64,5.64,0,0,0-.46.63,14.19,14.19,0,0,1-2,2.52,7.14,7.14,0,0,1-5.29,2.3c-2.08,0-4.58-1.13-4.66-4.12a2.14,2.14,0,0,0-.25-1c-.17-.32-.37-.48-.7-.21a6.36,6.36,0,0,0-.7.56c-1,1-2,2-3,3-2.23,2.14-4.74,3.67-8,3.57a7.06,7.06,0,0,1-4.55-1.79A8.6,8.6,0,0,1,226,35.94a54.48,54.48,0,0,1-1.29-7.61c-.26-1.65-.41-3.31-.63-5-.31-2.43-.76-4.84-1.08-7.26-.3-2.2-.68-4.38-.92-6.59A63.89,63.89,0,0,0,220.89,3,3.89,3.89,0,0,0,219.62.24c-.83,1.7-1.61,3.33-1.14,5.26.22.91.44,1.82.59,2.74q.5,3.22.94,6.46c.23,1.64.54,3.28.66,4.94.16,2.26.53,4.49.84,6.72.47,3.47.82,7,1.26,10.43a1.86,1.86,0,0,1-.82,1.87,8.49,8.49,0,0,1-3.88,1.64,3.25,3.25,0,0,1-3.4-1.34c-.47-.66-.95-1.3-1.54-2.11a9.83,9.83,0,0,0-1,2.94,2.71,2.71,0,0,0,.5,2.5,19.67,19.67,0,0,1,2.68,6.47,1.45,1.45,0,0,1-.37,1.51,18,18,0,0,1-3,2.46,46.36,46.36,0,0,1-12.14,6.13,18.73,18.73,0,0,1-8.61,1.07,13.38,13.38,0,0,1-6-2.17,8.17,8.17,0,0,1-2.38-2.34l.62-.37a62.64,62.64,0,0,0,6-4.13,3.06,3.06,0,0,0,1-1.32,18,18,0,0,0,.74-2.33c.47-2,.55-4-1-5.7a11.86,11.86,0,0,0-2.88-2.14c-2.77-1.57-5.72-2.76-8.42-4.45a23.22,23.22,0,0,1-5.3-4.57h1c.26,0,.53,0,.66-.3s-.1-.48-.29-.64a4.3,4.3,0,0,0-.81-.61q-2-1-4-2.05a5,5,0,0,0-.85-.3c-.58-.16-.77,0-.8.61,0,1,0,2-.06,3a.79.79,0,0,0,.45.84A6.06,6.06,0,0,1,171,33a27.67,27.67,0,0,0,9.69,8.09l1.34.64c-.13.23-.25.47-.36.71a35.38,35.38,0,0,0-1.71,6,20.79,20.79,0,0,0-.24,3.7c0,.32,0,.64,0,1-1.43.86-2.87,1.72-4.32,2.55a44.39,44.39,0,0,1-6.18,3.16,11.34,11.34,0,0,1-4.36,1,3.09,3.09,0,0,1-3.25-3.69,21.12,21.12,0,0,1,.93-4,22.18,22.18,0,0,0,1-3.19,1.84,1.84,0,0,0,0-.33,4.35,4.35,0,0,0,.2-.61q.24-1,.45-2h.22c2.07.28,3.91,1,5.08,2.87.36.58.72.52,1.05-.06,1.39-2.44.89-4.56-1.43-6.13a7.49,7.49,0,0,0-2.09-1,7.39,7.39,0,0,0-2.24-.34c0-.25,0-.51,0-.76,0-3-.3-6.07-.58-9.09-.33-3.63-.76-7.25-1.18-10.87-.29-2.52-.63-5-.92-7.54a4.54,4.54,0,0,1,.14-2.63c.35,0,.41.33.6.48s.58.8,1.06.5.16-.71,0-1.08c-.23-.78-.46-1.56-.73-2.33-.69-2-1.44-3.94-2.09-5.94A5.73,5.73,0,0,0,160,.08a.8.8,0,0,0-.53.39c-.42.94-.82,1.88-1.26,2.81-.16.34,0,.56.15.83a6.67,6.67,0,0,1,.81,2.94c0,1.23,0,2.45.17,3.69.3,2.75.3,5.54.67,8.29.22,1.61.42,3.21.53,4.83.13,2,.46,4,.63,6,.19,2.16.43,4.32.67,6.47.2,1.82.48,3.64.6,5.47q-.61.16-1.23.39a40.34,40.34,0,0,0-9.43,5.41c-1.95,1.4-3.78,3-5.68,4.41-1.5,1.15-2.87,2.45-4.37,3.59a51.7,51.7,0,0,1-5.3,3.87,8.15,8.15,0,0,1-4.37,1.27c-2,0-3.31-.81-3.52-2.44a8.55,8.55,0,0,1,.1-3.45,13.29,13.29,0,0,1,4.06-6.7,11.42,11.42,0,0,0,1-1.18,1,1,0,0,0,.21-.84c-.09-.55-.5-.73-.92-.35s-.77.8-1.16,1.2a18.87,18.87,0,0,0-4.72,7.56,10.35,10.35,0,0,0-.36,4.28,6.65,6.65,0,0,0,2.94,4.49,5.81,5.81,0,0,0,7.26.37c1.36-.88,2.71-1.8,4-2.81,1.84-1.47,3.59-3.06,5.39-4.59,1.3-1.1,2.57-2.25,4-3.24,2.09-1.5,4.24-2.91,6.42-4.28a18.38,18.38,0,0,1,4.41-2.09c.47-.15,1-.31,1.43-.42a12.69,12.69,0,0,1-.06,1.63,2.39,2.39,0,0,0-.33.73,28.91,28.91,0,0,0-2.1,7.24,18.94,18.94,0,0,0-.06,4.7,4.68,4.68,0,0,0,5.64,3.76,18,18,0,0,0,3.22-.93,54.34,54.34,0,0,0,7.39-3.91c1.41-.86,2.81-1.74,4.21-2.61a9.76,9.76,0,0,0,4.19,5.44,14.61,14.61,0,0,0,7.46,2.13c4.16.21,7.94-1.23,11.65-2.85a42.46,42.46,0,0,0,9.48-5.93,8.31,8.31,0,0,0,3.25-4.51,18.94,18.94,0,0,0,.52-3.07c.63.92,1.38,1.67,2,2.5a77.12,77.12,0,0,0,6.64,7.36,10.63,10.63,0,0,0,2.62,1.83,33.79,33.79,0,0,0,4.09,1.57,66.38,66.38,0,0,0,15,3.59,128.15,128.15,0,0,0,14.4.78A91.16,91.16,0,0,0,282,63.18c2.8-.64,5.6-1.28,8.36-2.06,3.42-1,6.79-2.11,10.13-3.32s6.32-2.65,9.48-4a44.12,44.12,0,0,0,4.65-2.48c.91-.5,1.82-1,2.72-1.52a14.53,14.53,0,0,0-1.63,4.94,8.41,8.41,0,0,0-.18,3.4,8.71,8.71,0,0,0,3,5,3.61,3.61,0,0,0,3.62.71,16.1,16.1,0,0,0,5.59-3.57A66.23,66.23,0,0,1,334.07,55a32.27,32.27,0,0,1,7.81-4.13,56.12,56.12,0,0,0,7.43-3.22,5.9,5.9,0,0,0,3.08-3.77,11,11,0,0,0,.25-4.6c-.05-.28-.23-.57.12-.93a4.48,4.48,0,0,1,1.12,1.09c1,1.16,2,2.36,3.09,3.45a11.78,11.78,0,0,0,6.21,3.2,16.64,16.64,0,0,0,.27,2,11.33,11.33,0,0,0,9.62,9,21.79,21.79,0,0,0,11.58-1.66,53.42,53.42,0,0,0,7.65-4,16,16,0,0,0-.89,3.38,8.07,8.07,0,0,0-.18,3.4,8.64,8.64,0,0,0,3,5,3.62,3.62,0,0,0,3.62.71,15.92,15.92,0,0,0,5.59-3.57A66.23,66.23,0,0,1,409.79,55a32.46,32.46,0,0,1,7.81-4.13c1.22-.46,2.44-.92,3.64-1.43a16.37,16.37,0,0,0,.07,4.84,12.74,12.74,0,0,0,3.7,7.06,13.54,13.54,0,0,0,8.69,3.41c4.3.27,8.22-1,12-2.89a55,55,0,0,0,6.09-3.6,32.29,32.29,0,0,0,5.78-4.7A9.82,9.82,0,0,0,459.43,42.24ZM428.3,38l.09.09a1.4,1.4,0,0,1-.09.17s-.08-.07-.08-.09A1.3,1.3,0,0,1,428.3,38ZM282.58,36.89c.17.21.37.4.26.67s-.43.24-.67.27a4.16,4.16,0,0,1-2.35-.5,8,8,0,0,1-2.19-1.54A4.38,4.38,0,0,1,282.58,36.89Zm-101.08,11a31.35,31.35,0,0,1,1.41-5.69,42.52,42.52,0,0,1,4.26,2.29A7.4,7.4,0,0,1,189,46c.53.68.52.84-.17,1.34-.94.68-1.89,1.35-2.87,2L181.56,52A14,14,0,0,1,181.5,47.87ZM352.58,38.3s-.08-.07-.08-.09a.65.65,0,0,1,.08-.17l.09.09Z"/><path class="a" d="M399.16,2.69c-.37,2-2.06,3.72-3.48,5A10.45,10.45,0,0,1,394.13,9c-1.9,1.05-4.45.35-7,.26.51-1.38,2.42-1.46,3.87-1.81a14.7,14.7,0,0,0,4.13-1.54c-2.06-.71-5-.31-7-.26,0-1.45,1.33-2.63,1.8-4C391.91.9,398.71,1.36,399.16,2.69Z"/><path class="a" d="M324.13,2.15c-.38,2-2.07,3.72-3.49,5a11.24,11.24,0,0,1-1.55,1.3c-1.9,1-4.45.34-7,.25.52-1.38,2.42-1.46,3.87-1.8a14.7,14.7,0,0,0,4.13-1.55c-2.06-.71-5-.31-7-.26,0-1.45,1.33-2.63,1.81-4C316.87.36,323.68.82,324.13,2.15Z"/><path class="a" d="M273.38,2.15c-.37,2-2.06,3.72-3.49,5a10.64,10.64,0,0,1-1.54,1.3c-1.9,1-4.45.34-7,.25.52-1.38,2.42-1.46,3.88-1.8a14.7,14.7,0,0,0,4.13-1.55c-2.07-.71-5-.31-7-.26,0-1.45,1.32-2.63,1.81-4C266.13.36,272.93.82,273.38,2.15Z"/><path class="a" d="M273.7,50c.11,0,.23.11.25.25-.13.81-.81,1.08-1.16,1.68-4.44,1.74-8.76,3.62-13,5.55-.73.33-1.49.58-2.19.91s-1.24.95-2.07,1c-.06-1.13.67-1.48.9-2.32C262.12,54.65,267.68,52.07,273.7,50Z"/><path class="a" d="M156.08,17.28c.4-2-.06-4.23-1.68-4.64a5.21,5.21,0,0,0-3.1,4.9c.6,1,1.93,1.25,3,1.81-1.48,2.36-3.77,4.18-6,6-.18-1.55-.35-3.09-.53-4.63-.29-2.52-.63-5-.93-7.54a4.71,4.71,0,0,1,.14-2.63c.35,0,.42.33.61.48s.58.8,1.05.5.16-.71,0-1.08c-.24-.78-.46-1.56-.73-2.33-.69-2-1.44-3.94-2.09-5.94a5.89,5.89,0,0,0-1.11-2.1.78.78,0,0,0-.53.39c-.42.94-.82,1.88-1.26,2.81-.16.34,0,.56.15.83a7,7,0,0,1,.81,2.94c.05,1.23,0,2.45.16,3.69.31,2.75.31,5.54.68,8.29.22,1.61.41,3.21.52,4.83.08,1.16.22,2.31.36,3.47a39.69,39.69,0,0,0-4.5,3.25c-.17.15-.86.77-.39.78,1.74-.88,3.43-1.8,5-2.8.05.43.1.85.13,1.27.08.92.17,1.83.27,2.74a98.07,98.07,0,0,1-13.86-1.8,7.73,7.73,0,0,1-.95-.33,14.21,14.21,0,0,0,1.84-4.36,33.29,33.29,0,0,0,.33-7.59c-.17-2.6-.6-5.19-.93-7.79a2.8,2.8,0,0,1,.21-1.64,9.7,9.7,0,0,1,1.4,1.79.46.46,0,0,0,.55.23.57.57,0,0,0,.32-.52,2.65,2.65,0,0,0-.31-1.24c-.8-2.27-1.71-4.48-2.66-6.69-.27-.63-.46-1.3-.74-1.93s-.78-.78-1.07-.35a11.91,11.91,0,0,0-1.37,3,.48.48,0,0,0,0,.37,7.4,7.4,0,0,1,.74,4c0,1.1.19,2.21.31,3.31.23,2.17.63,4.31.73,6.49,0,.9.17,1.8.29,2.68a52.88,52.88,0,0,1,.39,5.62c0,1-.16,1.2-1.09,1.49s-1.83.48-2.76.66c-2.23.43-4.46.82-6.7,1.23-.51.09-1,.15-1.29.72A21.6,21.6,0,0,0,118.42,33c-.14.47.07.68.51.59,3-.6,5.88.13,8.78.7,1.6.31,3.19.65,4.79,1,.51.12,1.08,0,1.61.31-3,1.69-15.67,6.29-18,6.18a25.2,25.2,0,0,0,1.36-4.41,5.35,5.35,0,0,0-.48-4.07,7.81,7.81,0,0,0-11.38-3.13,31.46,31.46,0,0,0-7.24,6.91c-1.14,1.5-2.34,3-3.37,4.56a1.36,1.36,0,0,1-.62.59,6.91,6.91,0,0,1-3.26-3.85c-.55-1.42-.59-1.41-1.7-.34a1.62,1.62,0,0,1-.18.19c-1.45,1.26-2.75,2.71-4.58,3.5-1.63.69-1.58.73-2.56-.74a11.68,11.68,0,0,0-4.87-4.47,3.29,3.29,0,0,0-3.31.25,6.68,6.68,0,0,0-2.44,2.59,10.29,10.29,0,0,0-1,3.7,4.11,4.11,0,0,0,2.33,4.09,7.28,7.28,0,0,0,2.88.63,24.32,24.32,0,0,0,4.74-.45c1.1-.22,1.07-.16,1.47.85a1.21,1.21,0,0,1-.46,1.46A54.68,54.68,0,0,1,67.12,60a12.68,12.68,0,0,1-6.34,1.37,8,8,0,0,1-6.28-4.89,14.42,14.42,0,0,1-.12-7.12,24.89,24.89,0,0,1,.77-3,29.48,29.48,0,0,0,8.68-3.11,8.35,8.35,0,0,0,4.28-4.57c1.26-3.39.63-6.38-2.19-8.68a8.76,8.76,0,0,0-2.43-1.65A10.26,10.26,0,0,0,56,28.6a16.86,16.86,0,0,0-3.55,2.3,40.17,40.17,0,0,0-5.63,4.66c-1.5,1.49-3.26,2.76-4.4,4.75a23.84,23.84,0,0,1-2.49-2.4c-.39-.53-.74-1.4-1.38-1.3s-.5,1.08-.72,1.67a4.07,4.07,0,0,0,.57,4,16.9,16.9,0,0,1,2.39,6.85,1.73,1.73,0,0,1-.52,1.62,19.22,19.22,0,0,1-3.73,2.95A60.8,60.8,0,0,1,23.34,60a16.36,16.36,0,0,1-12.41-.38,12.67,12.67,0,0,1-6.16-5.82A10,10,0,0,1,4.09,46c.5-1.51,1-3,1.38-4.56a5.54,5.54,0,0,0,.17-.58h0c2.47.1,3.09-3,3.49-4.91.1-.46.41-1.2-.13-1.42-1,.69-.64,2.06-1.94,2.2-1,.12-1.89-1-2.19-1.68-2-4.3,3-9.15,2.32-12.78a.67.67,0,0,1-.39-.13c0,.17-.22.12-.25.26-.71,3.26-4,8.3-4.13,12.91-.06,2.17.75,4.6,2.33,5.33A23.85,23.85,0,0,0,3,44.91a21.34,21.34,0,0,0-1.41,7.72,12.77,12.77,0,0,0,2,6.26,14.62,14.62,0,0,0,7.66,5.9,16,16,0,0,0,5.55.83,23.84,23.84,0,0,0,9.43-2.27,60.53,60.53,0,0,0,9.3-5,22.62,22.62,0,0,0,5.15-4.26,6.79,6.79,0,0,0,1.42-3,15.82,15.82,0,0,0,.4-5.79,3.08,3.08,0,0,1,.59.09,21.06,21.06,0,0,0,11,1.05,25.71,25.71,0,0,0-1.61,5.27,25,25,0,0,0-.5,3.42,10.12,10.12,0,0,0,2.7,7.52,8.2,8.2,0,0,0,6.62,2.9,15.93,15.93,0,0,0,8.19-2.77c2.51-1.65,4.93-3.41,7.33-5.23a43.09,43.09,0,0,0,5.08-4.75,5.18,5.18,0,0,0,1.27-2.36,32.87,32.87,0,0,0,.54-3.42,1.07,1.07,0,0,1,.65-1,11.88,11.88,0,0,0,3.84-3,8.93,8.93,0,0,1,.85-.78c.43-.39.72-.29,1,.22a10.47,10.47,0,0,0,1.91,2.88,4.49,4.49,0,0,1,.82.81c.22.35-.11.74.24,1.32.45-1.16,1.07-.65,1.72-.43a14.89,14.89,0,0,0,5.57.84A88.2,88.2,0,0,0,111,47.11a79.08,79.08,0,0,0,11.62-2.83c5.19-1.68,10.15-4,15.33-5.68A26,26,0,0,1,146,37l.6,0a48.22,48.22,0,0,1,.58,7.1c0,1.58.26,3.18-.22,4.74a.58.58,0,0,0,.38.73c.36.12.56-.15.67-.44a7.47,7.47,0,0,0,.39-1.09,30.33,30.33,0,0,0,1-7.35c0-1.3-.08-2.59-.16-3.88l.31,0a1.18,1.18,0,0,0,1.18-.83c.32-.93.65-1.86.91-2.81.17-.63,0-.74-.62-.68s-1.4.13-2.11.17l-.09-1c-.15-1.61-.32-3.21-.49-4.82a27.74,27.74,0,0,0,6.89-7,6.94,6.94,0,0,1,2.46,1.42,6.68,6.68,0,0,0,.64-2.2C157.81,18.23,156.78,17.91,156.08,17.28ZM77.83,43.33a9.64,9.64,0,0,1-1.06,0,6.12,6.12,0,0,1-3.45-.61c-.67-.31-.71-.63-.24-1.17a2.12,2.12,0,0,1,2.73-.63,6.65,6.65,0,0,1,2.28,1.64C78.46,42.94,78.35,43.27,77.83,43.33ZM45.91,41.5c-1-.2-1-.4-.38-1.13A36.67,36.67,0,0,1,54,33.69,9.83,9.83,0,0,1,55.37,33c4.12-1.69,7.53-.33,10.09,3,1.09,1.42,1,1.74-.61,2.58A27.3,27.3,0,0,1,51.93,42,21.22,21.22,0,0,1,45.91,41.5Zm69.4-2.4a7.09,7.09,0,0,1-2.13,1.4,29.28,29.28,0,0,1-7.58,2.42,20.26,20.26,0,0,1-8.06.3c-.32-.07-.69,0-.92-.4a35.2,35.2,0,0,1,6.84-7.27,14.33,14.33,0,0,1,3.21-1.87,4.81,4.81,0,0,1,3.15-.26,8.31,8.31,0,0,1,5.68,4.45A.89.89,0,0,1,115.31,39.1Zm39.35-22.33a4.85,4.85,0,0,1-1.94-.91,1.48,1.48,0,0,1,1.42-.77C154.28,15.68,154.71,16,154.66,16.77Z"/><path class="a" d="M13,5.67c-1.23-.37-1.11-1.94-2.45-1.94S8.92,5.89,8.78,7.86s.36,4.19-.9,4.78c-.63-.19-.6-1-.78-1.42A9.18,9.18,0,0,0,4.26,7.6C2.91,8.07.65,7.5,0,6.44A7.47,7.47,0,0,1,.39,3.6C4.1,3.51,6,6.3,7.62,8.77c.38-1.58.19-3.56.64-5.17C8.57,2.5,9.29.9,10.85,1S14.6,3.81,13,5.67Z"/><path class="a" d="M31.38,32.05c.42,2.45-2.92,5.72-1.57,8.62.2.43.78,1.21,1.48,1.13.87-.1.66-1,1.31-1.48.36.15.15.64.08,1-.26,1.29-.68,3.38-2.35,3.3-1.46,0-2.22-2-2.17-3.74.08-3.11,2.3-6.5,2.78-8.7,0-.1.17-.06.18-.18A.41.41,0,0,0,31.38,32.05Z"/><path class="a" d="M29.92,5.41c.35,2-2.4,4.72-1.29,7.12.17.36.64,1,1.23.94s.53-.85,1.07-1.22c.3.12.13.53.08.79-.23,1.06-.57,2.79-2,2.73-1.21,0-1.83-1.68-1.8-3.09.07-2.57,1.91-5.38,2.31-7.2,0-.08.14-.05.14-.14A.44.44,0,0,0,29.92,5.41Z"/><path class="a" d="M19.07,11c-.21-2.21,2.47-4.14,2.31-6.44a1.65,1.65,0,0,0-.85-1.45c-.85.12-1.07.87-1.82,1.09-.71-1.78,2-4.46,3.52-2.92.66.68.74,2.43.49,3.53a20,20,0,0,1-2.43,5C20,10.28,19.75,11.12,19.07,11Z"/><path class="a" d="M24.49,20.8c-1-.47-1.29-1.62-2.5-1.87-.49.17-.6.73-1,1,0,2.11-.08,3.51-.25,5.86-.07,1-.25,2.19-.87,2.24s-1.21-1.75-1.5-2.37c-.6-1.27-1.36-3-2.62-3.36s-1.88.21-3.24-.5a4.2,4.2,0,0,1,.25-3.12c3.69.11,5.59,3.05,6.86,6,.56-1.21.24-2.67.37-4.11s.67-4,2.12-4.11A3.5,3.5,0,0,1,25,18.68C25.1,19.35,24.64,20.11,24.49,20.8Z"/><path class="a" d="M23.9,34.14c-.49.17-.95-.21-1.49-.25a7,7,0,0,0-5.61,2c.61,1.73,1.28,3.49,2,5.36.94,2.45,2,4.56,2.37,7.73a9.89,9.89,0,0,1,0,3.73c-.73-.37-.31-1.09-.37-1.62a23.38,23.38,0,0,0-1.12-4.36c-.55-1.57-1.21-3.33-1.87-5a24.81,24.81,0,0,1-1.75-4.36C15.46,34,17.52,32,20.91,31.64a2.58,2.58,0,0,0-1.62-.87c-.79,0-1.14.68-1.62,1.12A16.91,16.91,0,0,1,18,29.4c2.23-2.16,4.9,1,6.36,2.12A10.6,10.6,0,0,1,23.9,34.14Z"/><path class="a" d="M11.5,55c-.21-2.21,2.46-4.14,2.31-6.43A1.7,1.7,0,0,0,13,47.07c-.85.12-1.07.87-1.82,1.09-.72-1.78,2-4.46,3.52-2.91.65.67.73,2.42.48,3.52a19.49,19.49,0,0,1-2.43,5C12.39,54.28,12.18,55.13,11.5,55Z"/><path class="a" d="M61.55,1.21c.63,3.63-4.32,8.48-2.32,12.78.3.65,1.15,1.8,2.2,1.68,1.29-.14,1-1.51,1.93-2.19.54.21.23.95.13,1.41-.4,1.92-1,5-3.48,4.91-2.17-.09-3.3-3-3.23-5.55C56.9,9.64,60.2,4.6,60.91,1.34c0-.14.26-.09.26-.26A.56.56,0,0,0,61.55,1.21Z"/><path class="a" d="M204.15,17.89c-.38,2-2.06,3.72-3.49,5a9.53,9.53,0,0,1-1.55,1.29c-1.9,1.05-4.45.35-7,.26.52-1.38,2.42-1.46,3.88-1.8a14.82,14.82,0,0,0,4.13-1.56c-2.07-.7-5-.3-7-.25,0-1.45,1.33-2.63,1.81-4C196.9,16.1,203.7,16.56,204.15,17.89Z"/><path class="a" d="M308.34,40.81c1.23,1.5-.21,3.8-1.31,4.79a3,3,0,0,1-2.78-1.2c-1.05,1.36-2.43,2.79-4.49,2.46-1-.18-1.86-.67-2.86-.74-2.78-.2-5.09,1.21-7.41,2.07-1.53,1.18-3.49,1.79-5.05,3a65.2,65.2,0,0,1-7.56,1.56,119.47,119.47,0,0,0,12.76-6,20.29,20.29,0,0,1,3.65-1.76,13.18,13.18,0,0,1,4.21-.83c1.78.07,3.62,1.14,4.95.38A5.58,5.58,0,0,0,304,43.28c.54-.67.68-1.84,1.68-2.1.38.4-.1.79-.13,1.41a1.87,1.87,0,0,0,2,.94C307.39,42.63,307.51,41.13,308.34,40.81Z"/><path class="a" d="M493.31,13.63c-1.1-.33-1-1.74-2.19-1.74s-1.5,1.93-1.62,3.7.32,3.75-.81,4.27c-.56-.17-.53-.9-.69-1.27a8.15,8.15,0,0,0-2.54-3.23c-1.21.42-3.23-.09-3.81-1a6.69,6.69,0,0,1,.34-2.54c3.32-.08,5.05,2.42,6.47,4.62.34-1.41.18-3.18.58-4.62.27-1,.92-2.42,2.3-2.31S494.7,12,493.31,13.63Z"/><path class="a" d="M621.55,42.09c-.32-.42-.54-1.18-1.14-1.07s-.54.92-.6,1.43c-.15,1.24-.42,2.51.6,3.63a5,5,0,0,1,1.05,2.18,1.25,1.25,0,0,1-.09,1.11,3.51,3.51,0,0,1-5,.29,5.83,5.83,0,0,1-1.48-3.77c-.07-1.63-.23-3.25-.34-4.88a31.59,31.59,0,0,0-1.22-6.82c-.08-.28-.11-.65-.48-.67s-.43.35-.59.6A13,13,0,0,0,611,37.35a3.69,3.69,0,0,1-3.27,2.71,3.77,3.77,0,0,1-4-2.05c-.31-.55-.68-1-1.16-1.8-.59,1.93-1.31,3.53-.3,5.27a3.79,3.79,0,0,1,.26.58,42.56,42.56,0,0,1,1.87,6.76,1.7,1.7,0,0,1-.58,1.83,57,57,0,0,1-5.18,4.24c-4,2.71-8.11,5.15-13.05,5.75a23.48,23.48,0,0,1-6,0,7.27,7.27,0,0,1-3.77-1.83,10.13,10.13,0,0,1-3.35-6.47,14.71,14.71,0,0,1,1.17-8.15,46.67,46.67,0,0,1,2.34-5s0-.09.08-.14a16.77,16.77,0,0,0,5.45-.36c1.23-.3,2.47-.55,3.77-1,0,.39.05.69.08,1s.14.58.4.54a.63.63,0,0,0,.59-.59,3,3,0,0,0,0-.52,1.56,1.56,0,0,1,1.13-1.76,13.57,13.57,0,0,0,4-2.84,5.45,5.45,0,0,0,1.86-5.09,11.17,11.17,0,0,1-.05-1.42,8.17,8.17,0,0,0-1.84-5.37c-1.49-1.61-2.77-1.57-4,.15a11.23,11.23,0,0,0-1.78,4.35,33.48,33.48,0,0,0-.68,6.61.87.87,0,0,1-.75,1,21.9,21.9,0,0,1-8.16.88c.27-.49.46-.82.64-1.16a5.69,5.69,0,0,0,.71-3.6,19.77,19.77,0,0,0-.55-3.43,10.46,10.46,0,0,0-2.41-4.77,2,2,0,0,0-2.87-.14,7.64,7.64,0,0,0-1.25,1.29,17.46,17.46,0,0,0-3.06,7.4,6,6,0,0,0,.81,5c.38.54.24.79-.35,1a15,15,0,0,1-6.29,1.19,8.54,8.54,0,0,1-7.58-4.09c-.65-1-1.11-2.13-1.83-3.1s-1.06-1.1-2.19-.82a5.64,5.64,0,0,0-1.72.85A11.32,11.32,0,0,0,544,35.73a21.71,21.71,0,0,0-1.24,6.53,4.23,4.23,0,0,0,2.09,4.13,9.88,9.88,0,0,0,2.94,1.28,30.93,30.93,0,0,0,4.31.67,6.4,6.4,0,0,1,2.83.76c.68.42.73.64.11,1.14A32.91,32.91,0,0,1,551.11,53a77.77,77.77,0,0,1-9.36,5.12,30,30,0,0,1-9.37,2.56A10.78,10.78,0,0,1,522.65,56a11.61,11.61,0,0,1-1.07-2.33,38.18,38.18,0,0,1,4-1.92,52.55,52.55,0,0,0,5.59-2.61,7.89,7.89,0,0,0,3.72-4.39,5,5,0,0,0,.47-1.72,8.14,8.14,0,0,0-3.33-7c-1.65-1.25-3.41-2.32-5.17-3.4a76.18,76.18,0,0,1-11.29-8.53c-.24-.22-.6-.36-.55-.85a1.44,1.44,0,0,1,1,0c.33.09.71.25.91-.17s-.17-.71-.43-1a1.79,1.79,0,0,0-.55-.33c-1.79-.74-3.44-1.74-5.16-2.61a1.68,1.68,0,0,1-.79-.66,2.7,2.7,0,0,1,.88-.9,19.82,19.82,0,0,1,4.92-2.75c2.87-1.24,5.84-2.23,8.79-3.28,2-.7,4-1.36,6-1.95,3.46-1,6.93-1.95,10.4-2.91a47.47,47.47,0,0,1,4.9-1.07,4.52,4.52,0,0,1,2.74.44,1.33,1.33,0,0,1,.72,2.09,17.7,17.7,0,0,1-1,1.81c-1.27,2-2.52,4-3.72,6a17.45,17.45,0,0,0-2.1,5.34,7.79,7.79,0,0,0-.18,2.37,10.29,10.29,0,0,0,2.15-3.94,10.87,10.87,0,0,1,.81-1.89c1.24-2.21,2.57-4.36,3.75-6.6a26.14,26.14,0,0,0,2.74-6.78A2,2,0,0,0,550.66,2a6.76,6.76,0,0,0-5.25-.44q-2.62.59-5.24,1.26c-3,.77-6,1.55-9,2.38-2,.56-3.93,1.22-5.9,1.81a76.87,76.87,0,0,0-12.47,4.81c-2.62,1.32-4.48,3.21-4.66,6.41-.06,1.09.24,2.08.27,3.11,0,1.36.85,1.83,1.82,2.31a.16.16,0,0,1,.09.09,37.69,37.69,0,0,0,3.87,3.92,51.09,51.09,0,0,0,7.22,6c2.75,1.9,5.61,3.66,8.41,5.49A10.68,10.68,0,0,1,533,41.86c1,1.47,1.38,1.41-.46,2.64a27.75,27.75,0,0,1-5.81,2.73,38.87,38.87,0,0,0-5.62,2.61,12.29,12.29,0,0,1,.21-1.88,26.58,26.58,0,0,1,1-3.6,7.32,7.32,0,0,0,.45-2,1.56,1.56,0,0,0-.08-.75l2.32-.94c.35-.59,1-.87,1.16-1.67,0-.15-.14-.21-.26-.26-6,2.11-11.57,4.69-17.3,7.1-.23.84-1,1.19-.9,2.32.82-.08,1.37-.7,2.06-1s1.47-.57,2.2-.9c3.18-1.43,6.37-2.84,9.62-4.18l0,.09a31.12,31.12,0,0,0-2,8.67A54.63,54.63,0,0,0,512,56.37a30.77,30.77,0,0,1-7.56,5.06,6.58,6.58,0,0,1-3.26.62c-2.21-.16-3.07-1.45-3-3.38a8,8,0,0,1,.6-2.63,42.63,42.63,0,0,1,3.41-6c.2-.35.77-.76.61-1.17a6.4,6.4,0,0,0,.33-1,27,27,0,0,0,.91-8c-.1-1.71-.09-3.43-.25-5.12-.19-2.09-.36-4.19-.62-6.27-.45-3.62-.65-7.27-.94-10.91-.16-2-.28-4-.42-6,0-.37-.13-.76.28-1.14.38.42.73.83,1.08,1.23.14.15.27.36.52.24a.51.51,0,0,0,.32-.51,10.09,10.09,0,0,0-.32-2c-.63-1.72-1.18-3.48-1.8-5.21-.4-1.13-.82-2.26-1.31-3.35C500.26,0,500,0,499.53.7a18.11,18.11,0,0,0-1,2.34,2,2,0,0,0-.05,1.83,4.39,4.39,0,0,1,.43,2A34.34,34.34,0,0,0,499,10.8c0,1.76.36,3.49.38,5.24a4,4,0,0,0,0,1.14,30.2,30.2,0,0,1,.43,4.45c.3,2.46.43,4.94.64,7.4l.69,8.27c.13,1.53.25,3.06.37,4.6a23.52,23.52,0,0,1,0,6.65,2.85,2.85,0,0,0-.07.51l-.15.18a17.94,17.94,0,0,0-1.87,2.9,17,17,0,0,0-2.63,6.61,6,6,0,0,0,2.42,6.1,4.81,4.81,0,0,0,5.52.74c.72-.38,1.47-.69,2.18-1.1a49.08,49.08,0,0,0,7.05-5.39,49.42,49.42,0,0,1,5.69-4.24,14.07,14.07,0,0,0,1.27,4.47,9.44,9.44,0,0,0,4.69,4.59,14.36,14.36,0,0,0,10.2.6A45.32,45.32,0,0,0,546.37,60a60.18,60.18,0,0,0,9.53-6.56,4.36,4.36,0,0,0,1.47-2.76c.08-.6.11-1.2.23-1.79a4.46,4.46,0,0,0-4-5.08c-1.24-.13-2.47-.27-3.7-.46a9.77,9.77,0,0,1-4.74-1.85,1.53,1.53,0,0,1-.6-1.81,10.32,10.32,0,0,1,3.16-4.77,5.64,5.64,0,0,1,1.9-1.07,1.1,1.1,0,0,1,1.44.47c.37.63.75,1.25,1.13,1.87a11.52,11.52,0,0,0,2.32,3,11.35,11.35,0,0,0,9.67,2.34,20.06,20.06,0,0,0,7.11-2.87,1.57,1.57,0,0,1,1.31-.27,21,21,0,0,0,2.2.47l-.42.66a33.23,33.23,0,0,0-1.88,3.95,24.58,24.58,0,0,0-2.31,11.2,11.29,11.29,0,0,0,1.9,5.77A10.2,10.2,0,0,0,579.33,65a20.14,20.14,0,0,0,8.53-.53,25.35,25.35,0,0,0,7.56-3.49,40,40,0,0,0,9-7.44A6.29,6.29,0,0,0,606,50.31a12.71,12.71,0,0,0,0-5.72,2.57,2.57,0,0,1,.5-.11,4.39,4.39,0,0,0,4.4-3.1c.28-.72.55-1.44.84-2.21a2.88,2.88,0,0,1,.7,2c.26,2.29.38,4.59.65,6.88a12.25,12.25,0,0,0,1,4.08c1.34,2.68,3.62,3.61,6.1,2a6.34,6.34,0,0,0,2.76-4.17C623.49,47.14,623.35,44.46,621.55,42.09ZM587,28.1a5.75,5.75,0,0,1,1.21-2.67c.65-.74,1.24-.83,2-.17a8.07,8.07,0,0,1,1.91,2.87.86.86,0,0,1-.33,1,16.23,16.23,0,0,1-5.09,3.38A12.94,12.94,0,0,1,587,28.1Zm-72.2-4.83s-.05-.05-.07-.07l0-.07.11.07S514.87,23.27,514.84,23.27Zm57.59,10.39a.53.53,0,0,1-.6,0,5.81,5.81,0,0,1-2.91-2.6.92.92,0,0,1-.1-.85,11.33,11.33,0,0,1,2.52-3.85,1.44,1.44,0,0,1,.92-.5,1.46,1.46,0,0,1,1.25.42A9.87,9.87,0,0,1,575.76,30a.82.82,0,0,1-.2.83A14.83,14.83,0,0,1,572.43,33.66Z"/><path class="a" d="M525.3.37c.12,0,.24.11.26.26-.14.8-.81,1.08-1.16,1.67-4.44,1.74-8.76,3.63-13,5.56-.73.32-1.49.57-2.19.9s-1.24,1-2.07,1c-.06-1.13.67-1.48.9-2.32C513.74,5.06,519.29,2.48,525.3.37Z"/><path class="a" d="M588.58,50.38c-1.1-.33-1-1.73-2.19-1.73s-1.49,1.93-1.62,3.7.32,3.75-.81,4.27c-.56-.17-.54-.9-.69-1.27a8.15,8.15,0,0,0-2.54-3.23c-1.21.41-3.23-.09-3.81-1a6.69,6.69,0,0,1,.34-2.54c3.33-.08,5,2.41,6.47,4.62.34-1.42.18-3.18.58-4.62.27-1,.92-2.42,2.31-2.31S590,48.72,588.58,50.38Z"/><path class="a" d="M440.08,48.33c.33,1.93-2.3,4.51-1.24,6.79.16.35.62,1,1.17.89s.51-.8,1-1.16c.29.11.12.5.07.75-.22,1-.55,2.67-1.86,2.61-1.15-.05-1.75-1.6-1.71-3,.06-2.45,1.82-5.12,2.19-6.86,0-.07.14,0,.14-.14A.33.33,0,0,0,440.08,48.33Z"/><path class="a" d="M380.15,37.81c.33,1.93-2.29,4.51-1.23,6.79.16.35.61,1,1.16.89s.52-.8,1-1.16c.29.11.12.5.07.75-.21,1-.54,2.66-1.85,2.61-1.15,0-1.75-1.6-1.72-2.95.07-2.45,1.82-5.13,2.2-6.86,0-.07.13-.05.14-.14A.3.3,0,0,0,380.15,37.81Z"/><path class="a" d="M153.31,54.86c.34,2-2.37,4.65-1.27,7,.16.36.63,1,1.2.92s.53-.83,1.06-1.2c.3.12.12.52.07.78-.22,1-.56,2.74-1.91,2.69-1.19,0-1.8-1.65-1.77-3,.07-2.52,1.88-5.28,2.27-7.07,0-.08.14,0,.14-.14A.33.33,0,0,0,153.31,54.86Z"/><path class="a" d="M64.15,56.6c-.21-2.21,2.47-4.14,2.31-6.44a1.68,1.68,0,0,0-.85-1.45c-.85.12-1.07.87-1.82,1.09-.71-1.78,2-4.46,3.52-2.91.66.67.74,2.42.48,3.52a19.65,19.65,0,0,1-2.43,5C65,55.92,64.83,56.76,64.15,56.6Z"/><path class="a" d="M537.72,47.32c.67,0,.49.79.51,1.42,1.25.71,2.94.77,3.36,2.06a6.23,6.23,0,0,1-.13,3.23,3.77,3.77,0,0,1-2.33,1.68c-2,.21-2.72-1.45-2.45-4A18,18,0,0,1,537.72,47.32Zm2.7,5a8.35,8.35,0,0,0-2.7-1.29C537,53.47,539.86,54,540.42,52.35Z"/><path class="a" d="M569.43,49.37c.09.05.18.09.2.2-.11.63-.63.85-.9,1.31-3.45,1.35-6.8,2.81-10.13,4.31-.56.25-1.15.44-1.7.7s-1,.74-1.6.8c0-.88.52-1.15.7-1.8C560.45,53,564.76,51,569.43,49.37Z"/><path class="a" d="M599.44,15.32c.33,1.93-2.3,4.5-1.23,6.79.15.34.6.95,1.16.89s.51-.8,1-1.16c.29.11.12.5.07.75-.22,1-.54,2.66-1.85,2.61s-1.76-1.6-1.72-2.95c.06-2.45,1.82-5.13,2.19-6.86,0-.08.14-.05.14-.14A.4.4,0,0,0,599.44,15.32Z"/><path class="a" d="M139.61,12.55c.34,2-2.37,4.65-1.27,7,.16.35.63,1,1.2.92s.53-.83,1.06-1.21c.3.12.12.53.07.78-.22,1.05-.56,2.75-1.91,2.69-1.19,0-1.8-1.65-1.77-3,.07-2.53,1.88-5.29,2.27-7.08,0-.07.14,0,.14-.14A.27.27,0,0,0,139.61,12.55Z"/><path class="a" d="M496.62.42c-.06.85-1.08,1.63-1.62,2.38-.56-.1-13.55,4.82-17.2,6.24-.61.24-1.18.53-1.79.78-1.51.64-5.73,2.89-6.59,2.88a13.18,13.18,0,0,1,1.17-2.48,115,115,0,0,1,11.77-4.87C485.94,4.11,494,1,494.48.84A6,6,0,0,1,496.62.42Z"/><path class="a" d="M470.33,9.44c-.19-2,2.25-3.77,2.11-5.87a1.55,1.55,0,0,0-.78-1.33c-.77.11-1,.8-1.66,1-.65-1.63,1.84-4.07,3.21-2.66a4.15,4.15,0,0,1,.45,3.21,18,18,0,0,1-2.22,4.54C471.14,8.82,471,9.59,470.33,9.44Z"/><path class="a" d="M489.63,65c-.21-2.2,2.46-4.13,2.31-6.43a1.68,1.68,0,0,0-.85-1.46c-.85.13-1.07.87-1.82,1.09-.71-1.78,2-4.45,3.52-2.91.66.67.74,2.43.49,3.52a19.85,19.85,0,0,1-2.44,5C490.52,64.32,490.31,65.16,489.63,65Z"/><path class="a" d="M95.26,36.37c-.18-1.92,2.14-3.59,2-5.59a1.47,1.47,0,0,0-.74-1.27c-.74.11-.93.76-1.58.95-.62-1.55,1.75-3.87,3.06-2.53A4,4,0,0,1,98.43,31a17.55,17.55,0,0,1-2.11,4.33C96,35.79,95.85,36.52,95.26,36.37Z"/></svg>