<?xml version="1.0" encoding="UTF-8"?>
<svg version="1.1" xmlns="http://www.w3.org/2000/svg" width="649" height="332">
<path d="M0 0 C0.96292969 0.87140625 1.92585937 1.7428125 2.91796875 2.640625 C20.13838704 18.7205093 29.99282632 39.68696047 33 63 C33.84820312 62.86722656 34.69640625 62.73445313 35.5703125 62.59765625 C42.81140851 61.50751322 50.00421325 60.52733147 57.328125 60.234375 C60.03773815 60.06142097 62.30341926 59.75559603 64.921875 59.203125 C69.60713215 58.43526961 73.53147941 58.16318024 78 60 C85.85751732 65.69615288 93.09450204 73.32485274 99 81 C99 81.66 99 82.32 99 83 C94.22766853 82.53059035 89.5766553 81.94456043 84.875 81 C42.42266955 73.06609166 -5.03738801 85.17638461 -40.5625 109.0625 C-43.39809185 111.01018566 -46.20291659 112.99753502 -49 115 C-50.40716652 115.99403562 -51.8147134 116.98753303 -53.22265625 117.98046875 C-56.49753322 120.29899049 -59.75403466 122.64119561 -63 125 C-67.96578393 121.80233611 -72.72405586 118.4546478 -77.375 114.8125 C-112.42251929 88.33711282 -157.16008902 75.85917906 -200.75 79.875 C-201.61294678 79.95339111 -202.47589355 80.03178223 -203.36499023 80.11254883 C-208.59015032 80.63291949 -213.65571151 81.46224374 -218.78222656 82.60205078 C-221 83 -221 83 -225 83 C-221.05151656 74.14834397 -210.77665978 62.79021406 -201.77880859 59.08544922 C-197.53624097 58.26562458 -193.53911872 58.8219282 -189.32617188 59.60351562 C-186.72359077 60.04711257 -184.14744237 60.27799376 -181.515625 60.484375 C-173.97468873 61.07916586 -166.48052955 61.8748797 -159 63 C-158.85304688 62.030625 -158.70609375 61.06125 -158.5546875 60.0625 C-154.93591298 37.79721834 -145.82298653 20.01743183 -130 4 C-129.41863281 3.34644531 -128.83726562 2.69289063 -128.23828125 2.01953125 C-113.1450645 -14.59441263 -88.22104393 -22.72013212 -66.41357422 -23.94091797 C-42.25876935 -24.53220492 -17.87185815 -16.49709983 0 0 Z M-74.33398438 -5.19189453 C-77.35407501 -0.87762978 -80.19944581 3.54092088 -83 8 C-84.04800781 7.77183594 -85.09601563 7.54367188 -86.17578125 7.30859375 C-87.55460172 7.01782209 -88.93351279 6.72747986 -90.3125 6.4375 C-91.00279297 6.28603516 -91.69308594 6.13457031 -92.40429688 5.97851562 C-95.75544066 5.28238431 -97.69534072 4.89844691 -101 6 C-88.17757676 11.47061228 -76.05937474 14.23778157 -62.125 14.3125 C-61.25746094 14.31805908 -60.38992188 14.32361816 -59.49609375 14.3293457 C-53.73639827 14.26484682 -48.58361536 13.41564389 -43 12 C-44.34490482 2.5345939 -52.04223091 -6.74229392 -59 -13 C-65.81341088 -16.40670544 -70.4661603 -10.4344101 -74.33398438 -5.19189453 Z M-46 -12 C-45.46890625 -11.07058594 -44.9378125 -10.14117187 -44.390625 -9.18359375 C-40.92708333 -3.12239583 -37.46354167 2.93880208 -34 9 C-27.48180123 7.10463724 -21.82185199 4.4821006 -16 1 C-16 0.34 -16 -0.32 -16 -1 C-30.25607978 -8.9638654 -30.25607978 -8.9638654 -46 -12 Z M-15.875 9.6875 C-17.05756413 10.42432842 -18.24246277 11.15742356 -19.4296875 11.88671875 C-20.01073242 12.24427246 -20.59177734 12.60182617 -21.19042969 12.97021484 C-24.02631536 14.58405264 -26.97542652 15.78166158 -30 17 C-28.83171895 22.54933499 -27.48148941 28.02641597 -26 33.5 C-24.51851059 38.97358403 -23.16828105 44.45066501 -22 50 C-14.34537626 47.35083457 -7.15545847 44.21362529 0 40.4375 C0.71728271 40.06181885 1.43456543 39.6861377 2.17358398 39.29907227 C6.11261182 37.18297372 9.593616 34.93401434 13 32 C11.36137539 23.02853025 2.50069632 13.97237118 -4 8 C-8.77196839 4.92208039 -11.53085522 6.8746427 -15.875 9.6875 Z M-87 20 C-89.83732115 25.67464229 -91.72622458 31.24118171 -93.25 37.375 C-93.42499023 38.07689453 -93.59998047 38.77878906 -93.78027344 39.50195312 C-94.47786229 42.40740369 -95 45.00105791 -95 48 C-95.69561035 47.79318604 -96.3912207 47.58637207 -97.10791016 47.37329102 C-100.27919577 46.43268231 -103.4520696 45.49754466 -106.625 44.5625 C-107.71941406 44.23701172 -108.81382812 43.91152344 -109.94140625 43.57617188 C-111.00488281 43.26357422 -112.06835938 42.95097656 -113.1640625 42.62890625 C-114.62513428 42.1968689 -114.62513428 42.1968689 -116.11572266 41.75610352 C-119.06340054 40.98337976 -121.98834294 40.4550688 -125 40 C-121.59797484 43.77210042 -117.51878389 45.10368498 -112.875 46.9375 C-111.54432495 47.46645874 -111.54432495 47.46645874 -110.18676758 48.00610352 C-94.97124046 53.87764421 -79.91255229 56.20974904 -63.625 56.25 C-62.62687286 56.25350464 -62.62687286 56.25350464 -61.60858154 56.25708008 C-51.13410962 56.27097069 -41.18046571 55.507798 -31 53 C-30.69665458 46.97408421 -31.80489596 41.75624684 -33.3125 35.9375 C-33.52583984 35.06544922 -33.73917969 34.19339844 -33.95898438 33.29492188 C-35.16738148 28.5298694 -36.57996128 24.32200464 -39 20 C-39.5878125 20.144375 -40.175625 20.28875 -40.78125 20.4375 C-55.47693007 23.47798553 -72.39220982 23.58787829 -87 20 Z M11.375 43 C1.23618798 49.56824485 -9.69882855 54.76206071 -21 59 C-20.67 65.93 -20.34 72.86 -20 80 C-13.19811907 77.75934123 -13.19811907 77.75934123 -6.4921875 75.31640625 C2.35828726 71.95364287 11.04732048 69.01062693 20.2890625 66.921875 C21.63097656 66.46554688 21.63097656 66.46554688 23 66 C24.04200865 62.87397406 23.99016695 62.02252853 23.29296875 58.9453125 C23.11830078 58.16542969 22.94363281 57.38554688 22.76367188 56.58203125 C22.57353516 55.77121094 22.38339844 54.96039063 22.1875 54.125 C21.91969727 52.92037109 21.91969727 52.92037109 21.64648438 51.69140625 C20.72126555 47.63647607 19.70569516 43.81273036 18 40 C15.11845195 40 13.75608522 41.38863115 11.375 43 Z M-97 61 C-99.00623359 74.88270528 -99.00623359 74.88270528 -95.81933594 87.97216797 C-92.67966202 91.06629536 -88.80939504 92.93241951 -84.91162109 94.91455078 C-81.69964274 96.73836378 -79.15881493 99.14656614 -76.5625 101.75 C-76.07201172 102.23992432 -75.58152344 102.72984863 -75.07617188 103.23461914 C-69.90696807 108.70618259 -66.89664263 115.10517459 -64 122 C-61.82927598 119.21816306 -60.03981807 116.38603732 -58.3125 113.3125 C-52.74535854 104.03845703 -45.64469442 97.6192539 -37.05078125 91.26171875 C-35.54064453 90.14216797 -35.54064453 90.14216797 -34 89 C-33.05125 88.48566406 -32.1025 87.97132812 -31.125 87.44140625 C-27.54125471 83.32405183 -28.48095384 78.49309476 -28.6875 73.25 C-28.71005859 72.17105469 -28.73261719 71.09210938 -28.75585938 69.98046875 C-28.8147435 67.3189065 -28.89692999 64.66015772 -29 62 C-30.68770515 62.14343968 -32.37515486 62.28988569 -34.0625 62.4375 C-35.00222656 62.51871094 -35.94195312 62.59992188 -36.91015625 62.68359375 C-39.09009133 62.90682351 -41.26406639 63.19252025 -43.43041992 63.52246094 C-49.69504013 64.36054295 -56.00198619 64.24060613 -62.3125 64.25 C-63.3792395 64.25350464 -63.3792395 64.25350464 -64.4675293 64.25708008 C-75.54883029 64.27083635 -86.18228087 63.52413446 -97 61 Z " fill="#C29F65" transform="translate(387,32)"/>
<path d="M0 0 C0 0.66 0 1.32 0 2 C-6.10737442 0.23536928 -12.07433507 -1.69557475 -18 -4 C-13.8866477 9.94962956 -7.4870431 26.468057 4.3125 35.8359375 C13.68205743 39.89426325 28.95989981 35.38430147 38 32 C56.54296417 24.32720287 72.31127853 12.50716581 82.24609375 -5.15234375 C83.95727953 -7.9306387 85.45556995 -9.96153692 88 -12 C90.78142043 -12.50755847 93.1457229 -12.19028514 96 -12 C93.48242263 -2.43320599 87.14742772 5.4612376 81 13 C80.57589844 13.57105469 80.15179688 14.14210937 79.71484375 14.73046875 C66.17697434 32.15995811 43.23125709 42.32124889 22 46 C-7.11738621 47.66140528 -32.32253806 42.36367789 -55 23 C-55.82757813 22.36707031 -56.65515625 21.73414063 -57.5078125 21.08203125 C-62.01084108 17.32009672 -65.40876732 12.61287646 -69 8 C-69.62390625 7.21496094 -70.2478125 6.42992187 -70.890625 5.62109375 C-73.71522504 1.86132208 -75.9786227 -1.77374189 -77.70703125 -6.1484375 C-77.99690918 -6.87587158 -78.28678711 -7.60330566 -78.58544922 -8.3527832 C-79.14363417 -9.8003855 -79.67139344 -11.26017477 -80.16455078 -12.73120117 C-80.96783693 -15.04912829 -80.96783693 -15.04912829 -83 -18 C-86.02738171 -18.80642046 -87.95380261 -19.03402305 -91 -19 C-91.792854 -19.02827881 -92.58570801 -19.05655762 -93.40258789 -19.08569336 C-115.81828227 -19.81661634 -137.77722231 -17.44658866 -159 -10 C-159.99 -10 -160.98 -10 -162 -10 C-160.43769442 -15.01480802 -157.41277739 -18.51839909 -154.125 -22.5 C-153.59519531 -23.15097656 -153.06539062 -23.80195313 -152.51953125 -24.47265625 C-151.48598427 -25.74214944 -150.44667639 -27.0069784 -149.40112305 -28.26660156 C-148.19393942 -29.76006798 -147.07035893 -31.3204115 -145.96484375 -32.890625 C-143.49186884 -35.5455086 -142.00240175 -35.81328767 -138.4375 -36.25 C-137.365 -36.38664062 -136.2925 -36.52328125 -135.1875 -36.6640625 C-134.135625 -36.77492188 -133.08375 -36.88578125 -132 -37 C-130.7315625 -37.16628906 -130.7315625 -37.16628906 -129.4375 -37.3359375 C-84.40339081 -42.54300638 -35.82273902 -27.51733966 0 0 Z " fill="#9C7238" transform="translate(316,154)"/>
<path d="M0 0 C0.99 0 1.98 0 3 0 C6.05481911 8.98409901 8.77662203 17.41505417 9 27 C11.31 27 13.62 27 16 27 C15.67 26.175 15.34 25.35 15 24.5 C13.83217191 20.4126017 13.8541115 17.23076656 14 13 C14.33 13 14.66 13 15 13 C15.66 16.96 16.32 20.92 17 25 C18.27230469 24.80083984 18.27230469 24.80083984 19.5703125 24.59765625 C26.81140851 23.50751322 34.00421325 22.52733147 41.328125 22.234375 C44.03773815 22.06142097 46.30341926 21.75559603 48.921875 21.203125 C53.60713215 20.43526961 57.53147941 20.16318024 62 22 C69.85751732 27.69615288 77.09450204 35.32485274 83 43 C83 43.66 83 44.32 83 45 C78.22766853 44.53059035 73.5766553 43.94456043 68.875 43 C26.42266955 35.06609166 -21.03738801 47.17638461 -56.5625 71.0625 C-59.39809185 73.01018566 -62.20291659 74.99753502 -65 77 C-66.40716652 77.99403562 -67.8147134 78.98753303 -69.22265625 79.98046875 C-72.49753322 82.29899049 -75.75403466 84.64119561 -79 87 C-83.96578393 83.80233611 -88.72405586 80.4546478 -93.375 76.8125 C-128.42251929 50.33711282 -173.16008902 37.85917906 -216.75 41.875 C-218.04442017 41.99258667 -218.04442017 41.99258667 -219.36499023 42.11254883 C-224.59015032 42.63291949 -229.65571151 43.46224374 -234.78222656 44.60205078 C-237 45 -237 45 -241 45 C-237.05151656 36.14834397 -226.77665978 24.79021406 -217.77880859 21.08544922 C-213.53624097 20.26562458 -209.53911872 20.8219282 -205.32617188 21.60351562 C-202.72359077 22.04711257 -200.14744237 22.27799376 -197.515625 22.484375 C-189.97468873 23.07916586 -182.48052955 23.8748797 -175 25 C-174.80664062 23.87980469 -174.61328125 22.75960937 -174.4140625 21.60546875 C-174.1514114 20.13274651 -173.88837017 18.66009381 -173.625 17.1875 C-173.43550781 16.08051758 -173.43550781 16.08051758 -173.2421875 14.95117188 C-172.59836518 11.39405354 -172.03003944 9.04505916 -170 6 C-169.81753591 11.29145847 -170.16707509 14.96306461 -172 20 C-171.2471875 20.08636719 -170.494375 20.17273438 -169.71875 20.26171875 C-160.4239628 21.49124764 -151.82047392 23.94996582 -143 27 C-141.80189697 27.41306396 -141.80189697 27.41306396 -140.57958984 27.83447266 C-131.67358356 30.93621369 -123.04297201 33.99211177 -115 39 C-115.01160156 37.94039062 -115.02320313 36.88078125 -115.03515625 35.7890625 C-115.04453476 34.40104342 -115.05363489 33.01302245 -115.0625 31.625 C-115.07087891 30.92632812 -115.07925781 30.22765625 -115.08789062 29.5078125 C-115.11328125 24.2265625 -115.11328125 24.2265625 -114 22 C-108.38746471 22.4274075 -102.90545365 23.00443492 -97.375 24.0625 C-82.17805138 26.45629143 -66.23923872 25.91356291 -51.23046875 22.65625 C-48 22 -48 22 -44 22 C-44 29.92 -44 37.84 -44 46 C-42.35 45.34 -40.7 44.68 -39 44 C-38.67 36.08 -38.34 28.16 -38 20 C-36.35 19.67 -34.7 19.34 -33 19 C-33.99 19.66 -34.98 20.32 -36 21 C-36.41570008 23.22498915 -36.41570008 23.22498915 -36.29296875 25.7890625 C-36.2784668 27.20058594 -36.2784668 27.20058594 -36.26367188 28.640625 C-36.23853516 29.62546875 -36.21339844 30.6103125 -36.1875 31.625 C-36.17396484 32.61757812 -36.16042969 33.61015625 -36.14648438 34.6328125 C-36.11105743 37.08908072 -36.06166196 39.54427285 -36 42 C-34.29070312 41.23816406 -34.29070312 41.23816406 -32.546875 40.4609375 C-19.6809731 34.83013265 -6.64142402 30.35926989 7 27 C6.54534 24.33266131 6.08636885 21.66617962 5.625 19 C5.49867188 18.25621094 5.37234375 17.51242188 5.2421875 16.74609375 C4.37537888 11.76194421 3.27933907 6.89486253 2 2 C1.34 2 0.68 2 0 2 C0 1.34 0 0.68 0 0 Z M-113 23 C-115.00623359 36.88270528 -115.00623359 36.88270528 -111.81933594 49.97216797 C-108.67966202 53.06629536 -104.80939504 54.93241951 -100.91162109 56.91455078 C-97.69964274 58.73836378 -95.15881493 61.14656614 -92.5625 63.75 C-92.07201172 64.23992432 -91.58152344 64.72984863 -91.07617188 65.23461914 C-85.90696807 70.70618259 -82.89664263 77.10517459 -80 84 C-77.82927598 81.21816306 -76.03981807 78.38603732 -74.3125 75.3125 C-68.74535854 66.03845703 -61.64469442 59.6192539 -53.05078125 53.26171875 C-51.54064453 52.14216797 -51.54064453 52.14216797 -50 51 C-49.05125 50.48566406 -48.1025 49.97132812 -47.125 49.44140625 C-43.54125471 45.32405183 -44.48095384 40.49309476 -44.6875 35.25 C-44.71005859 34.17105469 -44.73261719 33.09210938 -44.75585938 31.98046875 C-44.8147435 29.3189065 -44.89692999 26.66015772 -45 24 C-46.68770515 24.14343968 -48.37515486 24.28988569 -50.0625 24.4375 C-51.00222656 24.51871094 -51.94195312 24.59992188 -52.91015625 24.68359375 C-55.09009133 24.90682351 -57.26406639 25.19252025 -59.43041992 25.52246094 C-65.69504013 26.36054295 -72.00198619 26.24060613 -78.3125 26.25 C-79.3792395 26.25350464 -79.3792395 26.25350464 -80.4675293 26.25708008 C-91.54883029 26.27083635 -102.18228087 25.52413446 -113 23 Z " fill="#BC9A60" transform="translate(403,70)"/>
<path d="M0 0 C1.06661865 0.19795166 1.06661865 0.19795166 2.15478516 0.39990234 C5.80801144 1.02126111 9.48497951 1.25900751 13.17626953 1.55786133 C17.29570406 1.90317197 21.40315653 2.34582045 25.51171875 2.80078125 C25.51171875 3.46078125 25.51171875 4.12078125 25.51171875 4.80078125 C26.60226563 4.89875 27.6928125 4.99671875 28.81640625 5.09765625 C44.02685675 6.56337509 58.83598859 8.64356533 72.51171875 15.80078125 C74.50925668 16.80634101 76.51064139 17.80399757 78.51220703 18.80151367 C79.92412607 19.50714869 81.33398229 20.21692698 82.74169922 20.9309082 C86.2048568 22.68317491 89.65083565 24.30705849 93.26171875 25.73828125 C102.00813956 29.57210138 109.26325954 36.29937642 116.01171875 42.92578125 C116.74998901 43.64314453 116.74998901 43.64314453 117.50317383 44.375 C121.72009628 48.64795403 125.31582844 53.10728951 125.76171875 59.23828125 C125.67921875 60.08390625 125.59671875 60.92953125 125.51171875 61.80078125 C120.51670982 59.84675889 116.4648672 57.50215828 112.19921875 54.23828125 C99.44065014 44.84061658 85.25860655 37.54576723 70.51171875 31.80078125 C69.8377002 31.53813477 69.16368164 31.27548828 68.46923828 31.00488281 C59.04873388 27.42433874 49.5092055 24.98901533 39.63671875 22.98828125 C38.61521729 22.78122559 37.59371582 22.57416992 36.54125977 22.36083984 C21.26912323 19.43153128 6.19613954 19.25384969 -9.23828125 20.67578125 C-10.53270142 20.79336792 -10.53270142 20.79336792 -11.85327148 20.91333008 C-17.07843157 21.43370074 -22.14399276 22.26302499 -27.27050781 23.40283203 C-29.48828125 23.80078125 -29.48828125 23.80078125 -33.48828125 23.80078125 C-27.78370582 11.01234231 -14.53921557 -2.13250913 0 0 Z " fill="#C29E63" transform="translate(195.48828125,91.19921875)"/>
<path d="M0 0 C1.10214844 0.11746582 1.10214844 0.11746582 2.2265625 0.23730469 C13.09252198 1.55271073 13.09252198 1.55271073 17.22265625 6.35546875 C18.24572929 7.66368214 19.254576 8.9831273 20.25 10.3125 C20.75337891 10.96025391 21.25675781 11.60800781 21.77539062 12.27539062 C23.26879809 14.20928568 24.73246757 16.16211146 26.1875 18.125 C26.92202393 19.10460693 26.92202393 19.10460693 27.67138672 20.10400391 C31.1875 24.88002684 31.1875 24.88002684 31.1875 27.125 C25.70888123 25.97160657 20.33274961 24.62336984 14.9375 23.125 C8.07462702 21.25510332 1.2482765 19.97623575 -5.8125 19.125 C-6.70453125 19.01285156 -7.5965625 18.90070313 -8.515625 18.78515625 C-47.85995083 14.68210513 -87.55092754 23.05778901 -124.06835938 37.34741211 C-128.62308509 39.125 -128.62308509 39.125 -130.8125 39.125 C-130.8125 38.465 -130.8125 37.805 -130.8125 37.125 C-128.76317928 35.53832895 -126.72763451 34.10279728 -124.5625 32.6875 C-123.89210693 32.24865479 -123.22171387 31.80980957 -122.53100586 31.35766602 C-85.87839468 7.75026291 -43.65827261 -4.65712216 0 0 Z " fill="#B28F56" transform="translate(462.8125,116.875)"/>
<path d="M0 0 C1.04671875 0.55945313 2.0934375 1.11890625 3.171875 1.6953125 C9.79890376 5.42067613 9.79890376 5.42067613 10.75390625 8.171875 C10.87572266 9.07679688 10.87572266 9.07679688 11 10 C6.31953846 9.35814934 2.00772335 8.11357997 -2.4375 6.5625 C-9.69407232 4.05946533 -16.67486645 1.91373888 -24.3125 0.9375 C-30.79113019 0.10443491 -30.79113019 0.10443491 -33 -1 C-34.80939382 -1.28956845 -36.62617457 -1.53369482 -38.4453125 -1.75390625 C-39.52167969 -1.88603516 -40.59804687 -2.01816406 -41.70703125 -2.15429688 C-42.83496094 -2.28900391 -43.96289062 -2.42371094 -45.125 -2.5625 C-46.26066406 -2.70107422 -47.39632812 -2.83964844 -48.56640625 -2.98242188 C-51.37722044 -3.32491604 -54.18840787 -3.66396195 -57 -4 C-57 -4.66 -57 -5.32 -57 -6 C-97.61875709 -5.27526828 -97.61875709 -5.27526828 -137 4 C-137.99 4 -138.98 4 -140 4 C-138.43769442 -1.01480802 -135.41277739 -4.51839909 -132.125 -8.5 C-131.59519531 -9.15097656 -131.06539062 -9.80195313 -130.51953125 -10.47265625 C-129.48598427 -11.74214944 -128.44667639 -13.0069784 -127.40112305 -14.26660156 C-126.19393942 -15.76006798 -125.07035893 -17.3204115 -123.96484375 -18.890625 C-121.49186884 -21.5455086 -120.00240175 -21.81328767 -116.4375 -22.25 C-115.365 -22.38664062 -114.2925 -22.52328125 -113.1875 -22.6640625 C-112.135625 -22.77492188 -111.08375 -22.88578125 -110 -23 C-108.7315625 -23.16628906 -108.7315625 -23.16628906 -107.4375 -23.3359375 C-70.0802381 -27.65537091 -32.74448556 -17.6937691 0 0 Z " fill="#B59157" transform="translate(294,140)"/>
<path d="M0 0 C4.95 0 9.9 0 15 0 C15.71027344 1.79308594 16.42054688 3.58617187 17.15234375 5.43359375 C18.0805937 7.76828303 19.00898648 10.10291553 19.9375 12.4375 C20.40607422 13.62150391 20.87464844 14.80550781 21.35742188 16.02539062 C21.80537109 17.15009766 22.25332031 18.27480469 22.71484375 19.43359375 C23.12855225 20.47572021 23.54226074 21.51784668 23.96850586 22.59155273 C24.78402023 24.90789285 24.78402023 24.90789285 26 26 C26.29769287 25.2479126 26.59538574 24.4958252 26.90209961 23.72094727 C28.24456006 20.33373158 29.59097474 16.94810172 30.9375 13.5625 C31.40607422 12.37849609 31.87464844 11.19449219 32.35742188 9.97460938 C32.80537109 8.84990234 33.25332031 7.72519531 33.71484375 6.56640625 C34.12855225 5.52427979 34.54226074 4.48215332 34.96850586 3.40844727 C36 1 36 1 37 0 C41.62 0 46.24 0 51 0 C51 14.52 51 29.04 51 44 C47.04 44 43.08 44 39 44 C38.505 35.09 38.505 35.09 38 26 C35.69 31.94 33.38 37.88 31 44 C27.37 44 23.74 44 20 44 C18.02 38.72 16.04 33.44 14 28 C13.71084731 32.89118777 13.71084731 32.89118777 13.43188477 37.78295898 C13.11111111 42.88888889 13.11111111 42.88888889 12 44 C8.04 44 4.08 44 0 44 C0 29.48 0 14.96 0 0 Z " fill="#CCA96D" transform="translate(487,230)"/>
<path d="M0 0 C4.29 0 8.58 0 13 0 C13.33 5.28 13.66 10.56 14 16 C18.29 16.33 22.58 16.66 27 17 C27 11.39 27 5.78 27 0 C31.29 0 35.58 0 40 0 C40 14.52 40 29.04 40 44 C35.71 44 31.42 44 27 44 C27 38.06 27 32.12 27 26 C20.565 26.495 20.565 26.495 14 27 C13.93941406 28.14339844 13.87882813 29.28679687 13.81640625 30.46484375 C13.73201572 31.95574305 13.64736698 33.44662775 13.5625 34.9375 C13.50352539 36.06961914 13.50352539 36.06961914 13.44335938 37.22460938 C13.11328125 42.88671875 13.11328125 42.88671875 12 44 C8.04 44 4.08 44 0 44 C0 29.48 0 14.96 0 0 Z " fill="#B59660" transform="translate(602,230)"/>
<path d="M0 0 C3.09244792 0.03255208 6.18489583 0.06510417 9.27734375 0.09765625 C9.27734375 5.70765625 9.27734375 11.31765625 9.27734375 17.09765625 C14.22734375 16.76765625 19.17734375 16.43765625 24.27734375 16.09765625 C24.27734375 10.81765625 24.27734375 5.53765625 24.27734375 0.09765625 C28.23734375 0.09765625 32.19734375 0.09765625 36.27734375 0.09765625 C36.27734375 14.61765625 36.27734375 29.13765625 36.27734375 44.09765625 C32.31734375 44.09765625 28.35734375 44.09765625 24.27734375 44.09765625 C24.27734375 38.48765625 24.27734375 32.87765625 24.27734375 27.09765625 C19.32734375 26.76765625 14.37734375 26.43765625 9.27734375 26.09765625 C9.27734375 32.03765625 9.27734375 37.97765625 9.27734375 44.09765625 C0 44.1953125 0 44.1953125 -2.72265625 44.09765625 C-4.6712955 42.149017 -3.85184365 39.19956905 -3.86160278 36.60644531 C-3.85957855 35.69604492 -3.85755432 34.78564453 -3.85546875 33.84765625 C-3.85642548 32.91920898 -3.8573822 31.99076172 -3.85836792 31.03417969 C-3.8590498 29.0670566 -3.85719497 27.09993129 -3.85302734 25.1328125 C-3.8476792 22.11062599 -3.85297207 19.0885881 -3.859375 16.06640625 C-3.85871422 14.16015592 -3.85743306 12.25390568 -3.85546875 10.34765625 C-3.85749298 9.43725586 -3.85951721 8.52685547 -3.86160278 7.58886719 C-3.83355982 0.13750215 -3.83355982 0.13750215 0 0 Z " fill="#BA9A63" transform="translate(364.72265625,229.90234375)"/>
<path d="M0 0 C1.97909398 -0.02686553 3.95828971 -0.04633375 5.9375 -0.0625 C7.03964844 -0.07410156 8.14179687 -0.08570313 9.27734375 -0.09765625 C12 0 12 0 13 1 C13.15873955 3.21687994 13.25133837 5.43855298 13.31640625 7.66015625 C13.33718735 8.32462265 13.35796844 8.98908905 13.37937927 9.6736908 C13.44493658 11.80318543 13.50378785 13.93280668 13.5625 16.0625 C13.60567939 17.50326847 13.64929349 18.94402399 13.69335938 20.38476562 C13.80062393 23.9230404 13.90187371 27.46145869 14 31 C17.10300921 32.71147299 17.10300921 32.71147299 20.625 32.8125 C23.33651167 32.1535811 23.33651167 32.1535811 25 29 C25.3696435 25.89791016 25.3696435 25.89791016 25.4140625 22.36328125 C25.45273438 21.06455078 25.49140625 19.76582031 25.53125 18.42773438 C25.56270517 17.05599427 25.59395251 15.68424939 25.625 14.3125 C25.66319197 12.92901215 25.70224442 11.54554777 25.7421875 10.16210938 C25.83660517 6.7748755 25.92218118 3.38764931 26 0 C27.97909398 -0.02686553 29.95828971 -0.04633375 31.9375 -0.0625 C33.03964844 -0.07410156 34.14179687 -0.08570313 35.27734375 -0.09765625 C38 0 38 0 39 1 C39.28462489 5.32629827 39.23195828 9.6654762 39.25 14 C39.270625 15.20785156 39.29125 16.41570312 39.3125 17.66015625 C39.3485955 25.95309752 38.9937411 33.17466415 33.75 39.875 C28.28254979 44.09984789 23.31321612 45.58608126 16.4921875 45.34765625 C10.95825629 44.57568152 6.75569197 42.15747896 3.0625 38 C-0.21667663 33.23028854 -0.12122293 29.57839386 -0.09765625 23.828125 C-0.0962413 23.1457074 -0.09482635 22.46328979 -0.09336853 21.76019287 C-0.08779084 19.59008316 -0.07524254 17.4200783 -0.0625 15.25 C-0.05748211 13.77474108 -0.05291971 12.29948053 -0.04882812 10.82421875 C-0.03782875 7.21611202 -0.02057953 3.60806625 0 0 Z " fill="#B49560" transform="translate(51,230)"/>
<path d="M0 0 C4.62 0 9.24 0 14 0 C17.61246509 7.72471298 20.53159051 15.65580973 23.42871094 23.66821289 C24.25753879 25.95833028 25.09330401 28.2458358 25.9296875 30.53320312 C26.45874598 31.98943348 26.98740664 33.44580845 27.515625 34.90234375 C27.8905307 35.92726173 27.8905307 35.92726173 28.27301025 36.97288513 C30 41.76999812 30 41.76999812 30 44 C25.71 44 21.42 44 17 44 C15 40 15 40 15 37 C10.05 37.33 5.1 37.66 0 38 C-0.66 39.98 -1.32 41.96 -2 44 C-6.29 44 -10.58 44 -15 44 C-13.75829103 37.91981746 -12.16845502 32.25784318 -9.9609375 26.46484375 C-9.67521881 25.70071671 -9.38950012 24.93658966 -9.09512329 24.14930725 C-8.19400557 21.74322828 -7.28467167 19.34035619 -6.375 16.9375 C-5.75726297 15.29252397 -5.14007056 13.64734331 -4.5234375 12.00195312 C-3.0219014 7.99891236 -1.51299584 3.99872273 0 0 Z M7 16 C6.33125616 17.64499042 5.66505926 19.29101648 5 20.9375 C4.62875 21.85402344 4.2575 22.77054688 3.875 23.71484375 C2.940402 25.74782158 2.940402 25.74782158 3 27 C5.64 27 8.28 27 11 27 C10.01 23.37 9.02 19.74 8 16 C7.67 16 7.34 16 7 16 Z " fill="#B99962" transform="translate(563,230)"/>
<path d="M0 0 C3.96 0 7.92 0 12 0 C12.33 4.95 12.66 9.9 13 15 C13.69867188 14.08476562 14.39734375 13.16953125 15.1171875 12.2265625 C16.03638138 11.02598274 16.95565644 9.82546514 17.875 8.625 C18.33519531 8.02171875 18.79539062 7.4184375 19.26953125 6.796875 C21.09372941 4.41748609 22.87741212 2.12258788 25 0 C28.2578125 -0.1953125 28.2578125 -0.1953125 32.125 -0.125 C34.04699219 -0.09792969 34.04699219 -0.09792969 36.0078125 -0.0703125 C37.48894531 -0.03550781 37.48894531 -0.03550781 39 0 C36.16065243 5.0895788 32.5382739 9.43051675 28.8515625 13.91601562 C28.13226563 14.81030273 28.13226563 14.81030273 27.3984375 15.72265625 C26.74367432 16.52328491 26.74367432 16.52328491 26.07568359 17.34008789 C24.81777285 19.28119891 24.24729062 20.69533021 24 23 C25.64652781 25.48907538 27.27729213 27.66867989 29.1875 29.9375 C29.9309668 30.84918945 29.9309668 30.84918945 30.68945312 31.77929688 C32.892313 34.47685447 35.12460369 37.14849465 37.36328125 39.81640625 C39 42 39 42 39 44 C33.97011017 44.91637669 28.90550987 45.74853426 24 44 C19.17060053 40.02819438 16.06935985 34.36021263 13 29 C12.67 33.95 12.34 38.9 12 44 C8.04 44 4.08 44 0 44 C0 29.48 0 14.96 0 0 Z " fill="#C3A168" transform="translate(438,230)"/>
<path d="M0 0 C3.96 0 7.92 0 12 0 C12.33 4.95 12.66 9.9 13 15 C13.69867188 14.08476562 14.39734375 13.16953125 15.1171875 12.2265625 C16.03638138 11.02598274 16.95565644 9.82546514 17.875 8.625 C18.33519531 8.02171875 18.79539062 7.4184375 19.26953125 6.796875 C21.09372941 4.41748609 22.87741212 2.12258788 25 0 C28.2578125 -0.1953125 28.2578125 -0.1953125 32.125 -0.125 C34.04699219 -0.09792969 34.04699219 -0.09792969 36.0078125 -0.0703125 C37.48894531 -0.03550781 37.48894531 -0.03550781 39 0 C36.87206804 3.32140216 34.6777153 6.46309144 32.16796875 9.5078125 C31.68005859 10.10207031 31.19214844 10.69632813 30.68945312 11.30859375 C29.6763627 12.53378763 28.65531137 13.7524364 27.62695312 14.96484375 C25.97183636 16.94175458 25.97183636 16.94175458 24 20 C24.49147872 24.28950546 27.20077762 27.16817656 29.8125 30.4375 C30.47088867 31.27764648 30.47088867 31.27764648 31.14257812 32.13476562 C33.16962362 34.71601078 35.22106188 37.26490272 37.32421875 39.78515625 C39 42 39 42 39 44 C33.97011017 44.91637669 28.90550987 45.74853426 24 44 C19.17060053 40.02819438 16.06935985 34.36021263 13 29 C12.67 33.95 12.34 38.9 12 44 C8.04 44 4.08 44 0 44 C0 29.48 0 14.96 0 0 Z " fill="#C4A268" transform="translate(241,230)"/>
<path d="M0 0 C1.93166016 0.01740234 1.93166016 0.01740234 3.90234375 0.03515625 C5.19269531 0.04417969 6.48304688 0.05320313 7.8125 0.0625 C8.81152344 0.07410156 9.81054688 0.08570313 10.83984375 0.09765625 C12.98224923 5.87949203 15.11832704 11.66361036 17.24853516 17.44995117 C17.97433131 19.41869355 18.70186256 21.38679716 19.43115234 23.35424805 C20.4781885 26.17982112 21.51899466 29.00762108 22.55859375 31.8359375 C22.88670044 32.71727859 23.21480713 33.59861969 23.55285645 34.50666809 C23.85316772 35.32729233 24.153479 36.14791656 24.46289062 36.9934082 C24.72936401 37.71510696 24.9958374 38.43680573 25.27038574 39.18037415 C25.83984375 41.09765625 25.83984375 41.09765625 25.83984375 44.09765625 C21.54984375 44.09765625 17.25984375 44.09765625 12.83984375 44.09765625 C12.17984375 42.11765625 11.51984375 40.13765625 10.83984375 38.09765625 C5.88984375 37.76765625 0.93984375 37.43765625 -4.16015625 37.09765625 C-4.82015625 39.40765625 -5.48015625 41.71765625 -6.16015625 44.09765625 C-10.45015625 44.09765625 -14.74015625 44.09765625 -19.16015625 44.09765625 C-16.77139671 35.68688402 -13.86109898 27.50636281 -10.86181641 19.29907227 C-10.0260246 17.01014803 -9.19636486 14.71906193 -8.3671875 12.42773438 C-7.83760063 10.9725248 -7.30766581 9.51744181 -6.77734375 8.0625 C-6.52943085 7.37719711 -6.28151794 6.69189423 -6.02609253 5.98582458 C-3.87423745 0.11972304 -3.87423745 0.11972304 0 0 Z M2.83984375 16.09765625 C2.33369077 17.36605151 1.83515276 18.63748727 1.33984375 19.91015625 C1.06140625 20.61785156 0.78296875 21.32554687 0.49609375 22.0546875 C-0.31307245 24.21606841 -0.31307245 24.21606841 -0.16015625 27.09765625 C2.47984375 27.09765625 5.11984375 27.09765625 7.83984375 27.09765625 C7.39107759 25.44918856 6.93053887 23.8039217 6.46484375 22.16015625 C6.08199219 20.78537109 6.08199219 20.78537109 5.69140625 19.3828125 C5.07324271 16.93020538 5.07324271 16.93020538 2.83984375 16.09765625 Z " fill="#BA9A63" transform="translate(205.16015625,229.90234375)"/>
<path d="M0 0 C1.93166016 0.01740234 1.93166016 0.01740234 3.90234375 0.03515625 C5.19269531 0.04417969 6.48304688 0.05320313 7.8125 0.0625 C8.81152344 0.07410156 9.81054688 0.08570313 10.83984375 0.09765625 C11.42578125 1.66015625 12.01171875 3.22265625 12.59765625 4.78515625 C13.16141968 6.28804199 13.16141968 6.28804199 13.73657227 7.82128906 C14.55822857 10.01302582 15.37902365 12.20508562 16.19897461 14.39746094 C18.03755348 19.31048581 19.87998429 24.22110549 21.7734375 29.11328125 C22.0523584 29.83902344 22.3312793 30.56476563 22.61865234 31.3125 C23.35587768 33.22698921 24.0995972 35.13897405 24.84375 37.05078125 C25.83984375 40.09765625 25.83984375 40.09765625 25.83984375 44.09765625 C21.87984375 44.09765625 17.91984375 44.09765625 13.83984375 44.09765625 C11.83984375 40.09765625 11.83984375 40.09765625 11.83984375 37.09765625 C6.55984375 37.09765625 1.27984375 37.09765625 -4.16015625 37.09765625 C-4.82015625 39.40765625 -5.48015625 41.71765625 -6.16015625 44.09765625 C-10.12015625 44.09765625 -14.08015625 44.09765625 -18.16015625 44.09765625 C-17.56744411 38.57325187 -16.1730407 33.77552677 -14.25390625 28.57421875 C-13.96914429 27.78743744 -13.68438232 27.00065613 -13.39099121 26.19003296 C-12.79233486 24.54007814 -12.190436 22.89129652 -11.58544922 21.24365234 C-10.6562361 18.71197565 -9.73748586 16.17668524 -8.8203125 13.640625 C-8.23628036 12.03493669 -7.65166579 10.42946008 -7.06640625 8.82421875 C-6.65231506 7.68371567 -6.65231506 7.68371567 -6.2298584 6.52017212 C-3.87381016 0.11970983 -3.87381016 0.11970983 0 0 Z M2.83984375 16.09765625 C1.35484375 21.54265625 1.35484375 21.54265625 -0.16015625 27.09765625 C2.47984375 27.09765625 5.11984375 27.09765625 7.83984375 27.09765625 C7.39107759 25.44918856 6.93053887 23.8039217 6.46484375 22.16015625 C6.08199219 20.78537109 6.08199219 20.78537109 5.69140625 19.3828125 C5.07324271 16.93020538 5.07324271 16.93020538 2.83984375 16.09765625 Z " fill="#BC9C64" transform="translate(306.16015625,229.90234375)"/>
<path d="M0 0 C3.90238224 2.29551897 5.69436655 4.09752508 8.1875 7.875 C8.31640625 10.5703125 8.31640625 10.5703125 8.1875 12.875 C6.06311661 12.95578641 3.9378677 13.01409141 1.8125 13.0625 C0.62914063 13.09730469 -0.55421875 13.13210937 -1.7734375 13.16796875 C-3.27777344 13.02294922 -3.27777344 13.02294922 -4.8125 12.875 C-5.4725 11.885 -6.1325 10.895 -6.8125 9.875 C-8.1325 9.875 -9.4525 9.875 -10.8125 9.875 C-10.80139657 12.31943177 -10.80139657 12.31943177 -9.8125 14.875 C-7.02679949 16.32951801 -7.02679949 16.32951801 -3.625 17.25 C1.48337095 19.05196382 5.09051279 20.53383197 8.29296875 24.984375 C10.00006567 28.59238771 9.81793231 30.90327648 9.1875 34.875 C6.97634306 39.66584003 4.18033232 42.084894 -0.53515625 44.18359375 C-6.10141726 45.87352205 -11.13534559 45.39739236 -16.625 43.6875 C-20.06889708 41.72920558 -22.35315176 39.98535218 -24.8125 36.875 C-25.6875 33.625 -25.6875 33.625 -25.8125 30.875 C-24.8125 29.875 -24.8125 29.875 -22.37890625 29.7421875 C-20.89197266 29.74605469 -20.89197266 29.74605469 -19.375 29.75 C-18.38628906 29.74742187 -17.39757812 29.74484375 -16.37890625 29.7421875 C-13.8125 29.875 -13.8125 29.875 -11.8125 30.875 C-11.8125 31.865 -11.8125 32.855 -11.8125 33.875 C-9.8325 33.875 -7.8525 33.875 -5.8125 33.875 C-5.4825 32.555 -5.1525 31.235 -4.8125 29.875 C-5.369375 29.63265625 -5.92625 29.3903125 -6.5 29.140625 C-8.94446193 28.06704375 -11.37966655 26.97467085 -13.8125 25.875 C-14.93785156 25.37226563 -14.93785156 25.37226563 -16.0859375 24.859375 C-23.0560362 21.59457041 -23.0560362 21.59457041 -24.8125 17.875 C-25.82763329 13.37940971 -26.17977219 10.99842083 -24.75 6.625 C-18.7946839 -1.82770672 -9.2959341 -2.74306252 0 0 Z " fill="#B99962" transform="translate(125.8125,230.125)"/>
<path d="M0 0 C3.980625 -0.0825 7.96125 -0.165 12.0625 -0.25 C13.30394775 -0.28641602 14.54539551 -0.32283203 15.82446289 -0.36035156 C22.4613178 -0.42681123 26.6557643 -0.05834867 32 4 C34.74456635 7.47645071 35.73540775 10.59012924 36 15 C35.18383048 20.71318663 33.13925123 23.30378863 28.8515625 26.8359375 C25.26324068 29.09188666 21.91254432 29.11727032 17.75 29.0625 C16.1825 29.041875 14.615 29.02125 13 29 C13 33.95 13 38.9 13 44 C8.71 44 4.42 44 0 44 C0 29.48 0 14.96 0 0 Z M13 9 C13 12.3 13 15.6 13 19 C17.70353479 19.38514787 17.70353479 19.38514787 22 17.8125 C23.21478802 15.97085189 23.21478802 15.97085189 22.9375 13.4375 C22.21733192 10.92087503 22.21733192 10.92087503 20.25 9.6875 C17.59515557 8.75648455 17.59515557 8.75648455 13 9 Z " fill="#B99962" transform="translate(6,230)"/>
<path d="M0 0 C1.47583955 0.0001591 2.95168467 0.00585225 4.42749023 0.01586914 C5.20293686 0.01728409 5.97838348 0.01869904 6.77732849 0.02015686 C9.26361893 0.02577194 11.74982059 0.03832693 14.23608398 0.05102539 C15.91772331 0.05603845 17.59936405 0.06060169 19.28100586 0.06469727 C23.41189965 0.07574626 27.54272674 0.09302094 31.67358398 0.11352539 C31.67358398 3.08352539 31.67358398 6.05352539 31.67358398 9.11352539 C28.04358398 9.11352539 24.41358398 9.11352539 20.67358398 9.11352539 C20.68143921 10.65061157 20.68143921 10.65061157 20.68945312 12.21875 C20.70750367 16.00747815 20.71901618 19.79620248 20.72851562 23.58496094 C20.73355572 25.22722004 20.74038777 26.86947462 20.74902344 28.51171875 C20.76110324 30.86728018 20.76681537 33.22278248 20.77124023 35.57836914 C20.77640152 36.31691635 20.78156281 37.05546356 20.78688049 37.81639099 C20.78707648 39.58250627 20.73553117 41.34849685 20.67358398 43.11352539 C20.34358398 43.44352539 20.01358398 43.77352539 19.67358398 44.11352539 C15.71358398 44.11352539 11.75358398 44.11352539 7.67358398 44.11352539 C7.34358398 32.89352539 7.01358398 21.67352539 6.67358398 10.11352539 C3.37358398 9.78352539 0.07358398 9.45352539 -3.32641602 9.11352539 C-4.32641602 8.11352539 -4.32641602 8.11352539 -4.45141602 4.61352539 C-4.29187851 0.14647512 -4.29187851 0.14647512 0 0 Z " fill="#B89861" transform="translate(147.326416015625,229.886474609375)"/>
<path d="M0 0 C0.33 0 0.66 0 1 0 C1.18246409 5.29145847 0.83292491 8.96306461 -1 14 C0.12921875 14.12955078 0.12921875 14.12955078 1.28125 14.26171875 C10.5760372 15.49124764 19.17952608 17.94996582 28 21 C29.19810303 21.41306396 29.19810303 21.41306396 30.42041016 21.83447266 C39.32641644 24.93621369 47.95702799 27.99211177 56 33 C55.98839844 31.94039062 55.97679687 30.88078125 55.96484375 29.7890625 C55.95546524 28.40104342 55.94636511 27.01302245 55.9375 25.625 C55.92912109 24.92632812 55.92074219 24.22765625 55.91210938 23.5078125 C55.88671875 18.2265625 55.88671875 18.2265625 57 16 C62.61253529 16.4274075 68.09454635 17.00443492 73.625 18.0625 C88.82194862 20.45629143 104.76076128 19.91356291 119.76953125 16.65625 C123 16 123 16 127 16 C127 24.25 127 32.5 127 41 C126.67 41 126.34 41 126 41 C126 33.41 126 25.82 126 18 C122.535 18.7425 122.535 18.7425 119 19.5 C99.62510497 23.0404188 78.10844082 22.40964019 59 18 C58.67 25.92 58.34 33.84 58 42 C53.89700384 40.97425096 50.70630262 39.29056669 47.0625 37.25 C29.15528921 27.45891241 9.12909387 22.6605411 -11 20 C-11 19.67 -11 19.34 -11 19 C-8.69 19 -6.38 19 -4 19 C-3.79503906 17.87980469 -3.59007812 16.75960937 -3.37890625 15.60546875 C-3.10688311 14.13279176 -2.83474151 12.66013664 -2.5625 11.1875 C-2.42779297 10.44951172 -2.29308594 9.71152344 -2.15429688 8.95117188 C-1.58580263 5.88684924 -0.98690349 2.96071047 0 0 Z " fill="#A17D46" transform="translate(232,76)"/>
<path d="M0 0 C1.98 0 3.96 0 6 0 C9.73393831 7.18187283 12.9698293 14.49549213 16 22 C18.1155131 19.8844869 18.79076337 18.42357059 19.91015625 15.68359375 C20.26013672 14.83732422 20.61011719 13.99105469 20.97070312 13.11914062 C21.33099609 12.23419922 21.69128906 11.34925781 22.0625 10.4375 C22.78040039 8.68531479 23.50034439 6.93396501 24.22265625 5.18359375 C24.53984619 4.40556396 24.85703613 3.62753418 25.18383789 2.82592773 C26 1 26 1 27 0 C28.98 0 30.96 0 33 0 C33 10.23 33 20.46 33 31 C31.35 31.33 29.7 31.66 28 32 C26.47943501 28.95887002 26.6258839 25.71802203 26.4375 22.375 C26.293125 19.94125 26.14875 17.5075 26 15 C23.69 20.61 21.38 26.22 19 32 C17.35 32 15.7 32 14 32 C11.36 25.73 8.72 19.46 6 13 C5.67 19.27 5.34 25.54 5 32 C3.35 32 1.7 32 0 32 C0 21.44 0 10.88 0 0 Z " fill="#72572F" transform="translate(239,288)"/>
<path d="M0 0 C3.96 0 7.92 0 12 0 C12 14.52 12 29.04 12 44 C8.04 44 4.08 44 0 44 C0 29.48 0 14.96 0 0 Z " fill="#BC9C64" transform="translate(413,230)"/>
<path d="M0 0 C2.64355469 0.33154297 2.64355469 0.33154297 4.38867188 2.13574219 C4.90075195 2.96090332 5.41283203 3.78606445 5.94042969 4.63623047 C6.78927734 5.97621094 6.78927734 5.97621094 7.65527344 7.34326172 C8.51572266 8.76058594 8.51572266 8.76058594 9.39355469 10.20654297 C9.98265625 11.14369141 10.57175781 12.08083984 11.17871094 13.04638672 C15.26654576 19.57752511 15.26654576 19.57752511 16.64355469 22.33154297 C16.97355469 15.07154297 17.30355469 7.81154297 17.64355469 0.33154297 C19.29355469 0.33154297 20.94355469 0.33154297 22.64355469 0.33154297 C22.64355469 11.22154297 22.64355469 22.11154297 22.64355469 33.33154297 C20.99355469 33.33154297 19.34355469 33.33154297 17.64355469 33.33154297 C15.79077148 31.40380859 15.79077148 31.40380859 14.09277344 28.73779297 C13.16948242 27.31660156 13.16948242 27.31660156 12.22753906 25.86669922 C11.60169922 24.86509766 10.97585938 23.86349609 10.33105469 22.83154297 C9.36329102 21.32914062 9.36329102 21.32914062 8.37597656 19.79638672 C6.78253892 17.31770595 5.20618076 14.82971982 3.64355469 12.33154297 C3.61849854 12.89663574 3.59344238 13.46172852 3.56762695 14.04394531 C3.45175513 16.59838039 3.32898932 19.15243847 3.20605469 21.70654297 C3.16673828 22.59599609 3.12742187 23.48544922 3.08691406 24.40185547 C3.04501953 25.25263672 3.003125 26.10341797 2.95996094 26.97998047 C2.92330322 27.76550293 2.88664551 28.55102539 2.84887695 29.36035156 C2.64355469 31.33154297 2.64355469 31.33154297 1.64355469 33.33154297 C-0.00644531 33.00154297 -1.65644531 32.67154297 -3.35644531 32.33154297 C-3.38110035 27.93498124 -3.39928374 23.53845577 -3.41137695 19.1418457 C-3.41641652 17.64509379 -3.42324819 16.14834681 -3.43188477 14.65161133 C-3.4439669 12.5045449 -3.44967723 10.35754335 -3.45410156 8.21044922 C-3.45933838 6.91695557 -3.4645752 5.62346191 -3.4699707 4.29077148 C-3.3233008 0.46757589 -3.3233008 0.46757589 0 0 Z " fill="#916E3C" transform="translate(336.3564453125,286.66845703125)"/>
<path d="M0 0 C1.65 0 3.3 0 5 0 C6.95248398 2.36464162 8.48893699 4.52752659 10.0625 7.125 C10.69381836 8.12273437 10.69381836 8.12273437 11.33789062 9.140625 C12.13588384 10.40256776 12.92662473 11.66915055 13.70727539 12.94189453 C15.41657822 15.66322084 17.21740612 18.32610918 19 21 C19.33 14.4 19.66 7.8 20 1 C21.65 0.67 23.3 0.34 25 0 C25 10.89 25 21.78 25 33 C23.35 33 21.7 33 20 33 C18.04751602 30.63535838 16.51106301 28.47247341 14.9375 25.875 C14.51662109 25.20984375 14.09574219 24.5446875 13.66210938 23.859375 C12.86411616 22.59743224 12.07337527 21.33084945 11.29272461 20.05810547 C9.58342178 17.33677916 7.78259388 14.67389082 6 12 C5.67 18.6 5.34 25.2 5 32 C2.525 32.495 2.525 32.495 0 33 C0 22.11 0 11.22 0 0 Z " fill="#8F6C3A" transform="translate(380,287)"/>
<path d="M0 0 C2.77174013 1.3749577 3.91480471 2.58556335 6 5 C6 6.32 6 7.64 6 9 C3.75 9.25 3.75 9.25 1 9 C0.360625 8.34 -0.27875 7.68 -0.9375 7 C-2.91259502 4.65853138 -2.91259502 4.65853138 -6.25 4.75 C-7.1575 4.8325 -8.065 4.915 -9 5 C-9.41780879 7.37305578 -9.41780879 7.37305578 -9 10 C-6.80314244 11.71629497 -4.51171129 12.76305975 -1.9921875 13.9296875 C5.30811189 17.40473776 5.30811189 17.40473776 7 21 C7.58490372 24.92721068 7.34594305 26.48108543 5.125 29.8125 C2.12347041 32.90230988 0.38821295 33.19283951 -3.8125 33.3125 C-7.34657082 33.26653665 -8.87062496 33.06864798 -12.0625 31.375 C-14.363706 28.55416683 -14.75499132 26.59346057 -15 23 C-12.75 22.6875 -12.75 22.6875 -10 23 C-7.6875 25.5 -7.6875 25.5 -6 28 C-4.02 27.67 -2.04 27.34 0 27 C0 25.35 0 23.7 0 22 C-0.51949219 21.74605469 -1.03898437 21.49210937 -1.57421875 21.23046875 C-14.03747729 15.07947054 -14.03747729 15.07947054 -16 10 C-15.42967758 6.32458887 -14.96726859 3.91012143 -12.21484375 1.3203125 C-8.32603015 -0.99788679 -4.37463149 -0.74286195 0 0 Z " fill="#806135" transform="translate(440,287)"/>
<path d="M0 0 C1.32 0 2.64 0 4 0 C4 4.29 4 8.58 4 13 C4.66 12.34 5.32 11.68 6 11 C6.45375 10.55269531 6.9075 10.10539062 7.375 9.64453125 C8.58817378 8.41677605 9.77107373 7.15896998 10.9375 5.88671875 C11.618125 5.16097656 12.29875 4.43523437 13 3.6875 C13.639375 2.99011719 14.27875 2.29273438 14.9375 1.57421875 C17.47124166 -0.35967876 18.88699505 -0.31886683 22 0 C20.58397787 3.14906415 18.86264918 5.49523672 16.5625 8.0625 C15.96566406 8.73410156 15.36882812 9.40570313 14.75390625 10.09765625 C13.20703058 11.7754479 11.62828434 13.40159243 10 15 C11.41137593 18.14575332 13.12400487 20.45266773 15.4375 23 C22 30.25701944 22 30.25701944 22 33 C19.78515625 33.265625 19.78515625 33.265625 17 33 C14.68359375 31.171875 14.68359375 31.171875 12.4375 28.75 C11.32181641 27.56664062 11.32181641 27.56664062 10.18359375 26.359375 C9.46300781 25.58078125 8.74242187 24.8021875 8 24 C6.68 22.68 5.36 21.36 4 20 C4 24.29 4 28.58 4 33 C2.35 32.67 0.7 32.34 -1 32 C-1.02465504 27.60343827 -1.04283842 23.2069128 -1.05493164 18.81030273 C-1.05997121 17.31355082 -1.06680287 15.81680384 -1.07543945 14.32006836 C-1.08752159 12.17300193 -1.09323191 10.02600038 -1.09765625 7.87890625 C-1.10289307 6.5854126 -1.10812988 5.29191895 -1.11352539 3.95922852 C-1 1 -1 1 0 0 Z " fill="#795C32" transform="translate(293,287)"/>
<path d="M0 0 C1.67542976 0.28604898 3.34385343 0.61781233 5 1 C5.08725659 5.2290362 5.1404789 9.45784012 5.1875 13.6875 C5.21263672 14.88568359 5.23777344 16.08386719 5.26367188 17.31835938 C5.27333984 18.47529297 5.28300781 19.63222656 5.29296875 20.82421875 C5.3086792 21.88729248 5.32438965 22.95036621 5.34057617 24.0456543 C4.95103225 27.42477331 4.00795454 29.27990964 2 32 C-1.45904266 33.72952133 -5.21768025 33.47783755 -9 33 C-12.30415704 30.85229792 -12.86413506 29.58874809 -13.75 25.75 C-13.8325 24.8425 -13.915 23.935 -14 23 C-12.68 22.67 -11.36 22.34 -10 22 C-9.4121875 23.2375 -9.4121875 23.2375 -8.8125 24.5 C-7.9153125 25.7375 -7.9153125 25.7375 -7 27 C-4.42418411 27.20854598 -4.42418411 27.20854598 -2 27 C-1.97494385 26.21761963 -1.9498877 25.43523926 -1.92407227 24.62915039 C-1.80850212 21.10675051 -1.68560051 17.5846444 -1.5625 14.0625 C-1.50352539 12.21495117 -1.50352539 12.21495117 -1.44335938 10.33007812 C-1.40146484 9.16025391 -1.35957031 7.99042969 -1.31640625 6.78515625 C-1.27974854 5.70113525 -1.24309082 4.61711426 -1.20532227 3.50024414 C-1 1 -1 1 0 0 Z " fill="#70552D" transform="translate(214,287)"/>
<path d="M0 0 C4.62 0 9.24 0 14 0 C14 14.52 14 29.04 14 44 C10.04 44 6.08 44 2 44 C1.93941406 42.73542969 1.87882813 41.47085938 1.81640625 40.16796875 C1.73199096 38.50780129 1.64734345 36.84764563 1.5625 35.1875 C1.52318359 34.35412109 1.48386719 33.52074219 1.44335938 32.66210938 C1.40146484 31.85966797 1.35957031 31.05722656 1.31640625 30.23046875 C1.27974854 29.49207764 1.24309082 28.75368652 1.20532227 27.99291992 C1.05157859 25.792505 1.05157859 25.792505 0 23 C0.99 22.67 1.98 22.34 3 22 C3 28.93 3 35.86 3 43 C5.97 43 8.94 43 12 43 C12 29.14 12 15.28 12 1 C8.37 1.33 4.74 1.66 1 2 C-2.63 10.91 -6.26 19.82 -10 29 C-10.99 29 -11.98 29 -13 29 C-15.09230769 24.56923077 -15.09230769 24.56923077 -14.625 21.6875 C-14.41875 21.130625 -14.2125 20.57375 -14 20 C-13.01 21.98 -12.02 23.96 -11 26 C-10.70230713 25.2479126 -10.40461426 24.4958252 -10.09790039 23.72094727 C-8.75543994 20.33373158 -7.40902526 16.94810172 -6.0625 13.5625 C-5.59392578 12.37849609 -5.12535156 11.19449219 -4.64257812 9.97460938 C-4.19462891 8.84990234 -3.74667969 7.72519531 -3.28515625 6.56640625 C-2.66459351 5.00321655 -2.66459351 5.00321655 -2.03149414 3.40844727 C-1 1 -1 1 0 0 Z " fill="#7C6642" transform="translate(524,230)"/>
<path d="M0 0 C4.95 0 9.9 0 15 0 C15.33 1.65 15.66 3.3 16 5 C15.01 4.01 14.02 3.02 13 2 C9.37 1.67 5.74 1.34 2 1 C2 14.86 2 28.72 2 43 C4.97 43 7.94 43 11 43 C11 35.41 11 27.82 11 20 C11.99 20.33 12.98 20.66 14 21 C14.33 23.31 14.66 25.62 15 28 C14.67 28 14.34 28 14 28 C13.93941406 29.07121094 13.87882812 30.14242188 13.81640625 31.24609375 C13.73201463 32.64324391 13.64736594 34.04037857 13.5625 35.4375 C13.52318359 36.14455078 13.48386719 36.85160156 13.44335938 37.58007812 C13.11328125 42.88671875 13.11328125 42.88671875 12 44 C8.04 44 4.08 44 0 44 C0 29.48 0 14.96 0 0 Z " fill="#816A44" transform="translate(487,230)"/>
<path d="M0 0 C3.96 0 7.92 0 12 0 C12.33 4.95 12.66 9.9 13 15 C13.66 14.67 14.32 14.34 15 14 C14.34 15.65 13.68 17.3 13 19 C12.01 19 11.02 19 10 19 C10 13.06 10 7.12 10 1 C7.03 1 4.06 1 1 1 C1 14.86 1 28.72 1 43 C3.97 43 6.94 43 10 43 C10 37.06 10 31.12 10 25 C10.99 25 11.98 25 13 25 C13.33 26.32 13.66 27.64 14 29 C13.67 29 13.34 29 13 29 C12.67 33.95 12.34 38.9 12 44 C8.04 44 4.08 44 0 44 C0 29.48 0 14.96 0 0 Z " fill="#7D6742" transform="translate(438,230)"/>
<path d="M0 0 C3.96 0 7.92 0 12 0 C12.33 4.95 12.66 9.9 13 15 C13.66 14.67 14.32 14.34 15 14 C14.34 15.65 13.68 17.3 13 19 C12.01 19 11.02 19 10 19 C10 13.06 10 7.12 10 1 C7.03 1 4.06 1 1 1 C1 14.86 1 28.72 1 43 C3.97 43 6.94 43 10 43 C10 37.06 10 31.12 10 25 C10.99 25 11.98 25 13 25 C13.33 26.32 13.66 27.64 14 29 C13.67 29 13.34 29 13 29 C12.67 33.95 12.34 38.9 12 44 C8.04 44 4.08 44 0 44 C0 29.48 0 14.96 0 0 Z " fill="#806943" transform="translate(241,230)"/>
<path d="M0 0 C1.98 0 3.96 0 6 0 C6 10.23 6 20.46 6 31 C4.68 31 3.36 31 2 31 C2 23.08 2 15.16 2 7 C1.01 7.33 0.02 7.66 -1 8 C-0.67 5.36 -0.34 2.72 0 0 Z " fill="#926F3C" transform="translate(266,288)"/>
<path d="M0 0 C1.2065625 0.0309375 1.2065625 0.0309375 2.4375 0.0625 C2.1075 0.7225 1.7775 1.3825 1.4375 2.0625 C0.4475 1.7325 -0.5425 1.4025 -1.5625 1.0625 C-1.5625 11.2925 -1.5625 21.5225 -1.5625 32.0625 C-0.9025 32.0625 -0.2425 32.0625 0.4375 32.0625 C0.4375 24.1425 0.4375 16.2225 0.4375 8.0625 C1.4275 8.3925 2.4175 8.7225 3.4375 9.0625 C3.29902362 12.68782066 3.15047357 16.31265904 3 19.9375 C2.96068359 20.97003906 2.92136719 22.00257813 2.88085938 23.06640625 C2.83896484 24.05253906 2.79707031 25.03867187 2.75390625 26.0546875 C2.71724854 26.96589355 2.68059082 27.87709961 2.64282227 28.81591797 C2.4375 31.0625 2.4375 31.0625 1.4375 33.0625 C-0.2125 32.7325 -1.8625 32.4025 -3.5625 32.0625 C-3.58715504 27.66593827 -3.60533842 23.2694128 -3.61743164 18.87280273 C-3.62247121 17.37605082 -3.62930287 15.87930384 -3.63793945 14.38256836 C-3.65002159 12.23550193 -3.65573191 10.08850038 -3.66015625 7.94140625 C-3.66539307 6.6479126 -3.67062988 5.35441895 -3.67602539 4.02172852 C-3.52503746 0.08597652 -3.52503746 0.08597652 0 0 Z " fill="#5D4625" transform="translate(336.5625,286.9375)"/>
<path d="M0 0 C1.32 0 2.64 0 4 0 C4.45572917 1.98567708 4.91145833 3.97135417 5.3671875 5.95703125 C5.98007723 8.27742974 5.98007723 8.27742974 8 11 C4.13541448 14.36477769 1.39581141 14.51665363 -3.5859375 14.34765625 C-7.11041651 13.84008565 -8.76035375 12.74537282 -11 10 C-11.8125 6.75 -11.8125 6.75 -12 4 C-9.75 3.6875 -9.75 3.6875 -7 4 C-4.6875 6.5 -4.6875 6.5 -3 9 C-1.02 8.67 0.96 8.34 3 8 C3.34900558 4.28263359 3.34900558 4.28263359 1.5 1.1875 C1.005 0.795625 0.51 0.40375 0 0 Z " fill="#906D3B" transform="translate(437,306)"/>
<path d="M0 0 C1.65 0 3.3 0 5 0 C5.66 2.97 6.32 5.94 7 9 C6.01 8.67 5.02 8.34 4 8 C3.67 15.26 3.34 22.52 3 30 C2.01 30 1.02 30 0 30 C0 20.1 0 10.2 0 0 Z " fill="#AA8146" transform="translate(240,289)"/>
<path d="M0 0 C1.13199353 0.9080162 2.25532363 1.82683826 3.375 2.75 C4.00148438 3.26046875 4.62796875 3.7709375 5.2734375 4.296875 C7.08312318 6.08199481 8.00117455 7.67949644 9 10 C4.22766853 9.53059035 -0.4233447 8.94456043 -5.125 8 C-20.54564548 5.16547806 -36.39066413 5.88471687 -52 6 C-52 5.67 -52 5.34 -52 5 C-33.38089068 1.63934562 -13.48892419 3.83047014 5 7 C4.175 6.21625 3.35 5.4325 2.5 4.625 C0 2 0 2 0 0 Z " fill="#615032" transform="translate(477,105)"/>
<path d="M0 0 C0.66080566 0.12568359 1.32161133 0.25136719 2.00244141 0.38085938 C5.16109453 0.94537798 8.34304884 1.05448761 11.54296875 1.234375 C13.35608835 1.39416033 15.16889323 1.5579433 16.98046875 1.734375 C16.98046875 2.064375 16.98046875 2.394375 16.98046875 2.734375 C16.19623535 2.6401123 15.41200195 2.54584961 14.60400391 2.44873047 C-2.61922534 0.30343356 -2.61922534 0.30343356 -17.953125 6.7421875 C-22.45577361 11.0442958 -26.31556938 15.73625778 -30.01953125 20.734375 C-24.73953125 20.404375 -19.45953125 20.074375 -14.01953125 19.734375 C-14.01953125 20.064375 -14.01953125 20.394375 -14.01953125 20.734375 C-16.60206018 21.23886902 -19.18541828 21.73811801 -21.76953125 22.234375 C-22.49914062 22.37746094 -23.22875 22.52054688 -23.98046875 22.66796875 C-27.41296657 23.32326379 -30.51122616 23.734375 -34.01953125 23.734375 C-28.14894208 10.57376872 -14.85621231 -2.18390562 0 0 Z " fill="#5A4A30" transform="translate(196.01953125,91.265625)"/>
<path d="M0 0 C5.82681177 0.25389158 9.74415528 0.61116013 14 5 C15.36952673 7.73905345 15.12621361 9.97087332 15 13 C14.67 13.66 14.34 14.32 14 15 C12.68 14.67 11.36 14.34 10 14 C9.67 11.03 9.34 8.06 9 5 C8.2575 4.87625 7.515 4.7525 6.75 4.625 C4.19858515 4.04513299 2.2732427 3.26291261 0 2 C0 1.34 0 0.68 0 0 Z " fill="#8B6A39" transform="translate(432,301)"/>
<path d="M0 0 C0 0.66 0 1.32 0 2 C-0.99 2 -1.98 2 -3 2 C-3 2.66 -3 3.32 -3 4 C-2.34 3.855625 -1.68 3.71125 -1 3.5625 C2.65599551 2.87700084 6.30622195 2.43824485 10 2 C5.28345424 4.44737982 0.33540083 6.23818087 -4.625 8.125 C-5.59179688 8.49753906 -6.55859375 8.87007812 -7.5546875 9.25390625 C-8.47765625 9.60582031 -9.400625 9.95773438 -10.3515625 10.3203125 C-11.19541504 10.64273926 -12.03926758 10.96516602 -12.90869141 11.29736328 C-15 12 -15 12 -17 12 C-17 11.34 -17 10.68 -17 10 C-14.57350969 8.19931985 -12.15260703 6.52163451 -9.625 4.875 C-8.92632812 4.40707031 -8.22765625 3.93914062 -7.5078125 3.45703125 C-2.26683218 0 -2.26683218 0 0 0 Z " fill="#6D5530" transform="translate(349,144)"/>
<path d="M0 0 C3.84762566 3.4201117 6.60634022 7.46774256 9 12 C9 12.66 9 13.32 9 14 C8.01 14 7.02 14 6 14 C6 14.66 6 15.32 6 16 C6.66 16 7.32 16 8 16 C8.33 17.65 8.66 19.3 9 21 C5.86644429 18.10538645 3.75157538 15.2286523 1.6875 11.5 C1.15511719 10.5615625 0.62273437 9.623125 0.07421875 8.65625 C-1.09546731 5.76393538 -1.06612585 4.84300227 0 2 C0 1.34 0 0.68 0 0 Z " fill="#806135" transform="translate(388,293)"/>
<path d="M0 0 C1.35439668 2.70879335 1.06501451 5.00933268 1 8 C1.28875 7.195625 1.5775 6.39125 1.875 5.5625 C3 3 3 3 5 2 C4.896875 2.763125 4.79375 3.52625 4.6875 4.3125 C4.790625 5.199375 4.89375 6.08625 5 7 C7.33942344 8.7536564 7.33942344 8.7536564 10 10 C10.66 10.66 11.32 11.32 12 12 C9.03 11.505 9.03 11.505 6 11 C7.25541557 13.51083114 8.50063488 13.87125446 11 15 C10.01 15.495 10.01 15.495 9 16 C1.18691589 13.1588785 1.18691589 13.1588785 -1 10 C-2.36624071 6.00637332 -1.82177738 3.75071814 0 0 Z " fill="#72572F" transform="translate(426,290)"/>
<path d="M0 0 C2.73034935 2.73034935 3.78663731 5.97312216 5.1875 9.5 C5.61579102 10.53447266 5.61579102 10.53447266 6.05273438 11.58984375 C6.76545405 13.36904176 7.3895311 15.18317788 8 17 C7.67 17.66 7.34 18.32 7 19 C6.34 18.67 5.68 18.34 5 18 C5.33 19.98 5.66 21.96 6 24 C2.77599199 20.77599199 1.18134882 16.43007423 0.84375 11.90625 C0.87404547 9.93704422 0.93650274 7.96841493 1 6 C0.71325582 3.99279077 0.39764263 1.98821313 0 0 Z " fill="#694F2B" transform="translate(245,289)"/>
<path d="M0 0 C0.66 0 1.32 0 2 0 C2.04939662 3.95096978 2.08571755 7.9018203 2.10986328 11.85302734 C2.12488107 13.8591136 2.15028981 15.86511324 2.17578125 17.87109375 C2.18222656 19.12792969 2.18867188 20.38476562 2.1953125 21.6796875 C2.20578613 22.84226074 2.21625977 24.00483398 2.22705078 25.20263672 C2 28 2 28 0 30 C-0.99 29.67 -1.98 29.34 -3 29 C-2.67854004 28.46084961 -2.35708008 27.92169922 -2.02587891 27.36621094 C-0.78523049 24.50462968 -0.68127467 22.25497256 -0.5859375 19.140625 C-0.54726562 18.02558594 -0.50859375 16.91054688 -0.46875 15.76171875 C-0.4378125 14.60285156 -0.406875 13.44398438 -0.375 12.25 C-0.33632812 11.07566406 -0.29765625 9.90132813 -0.2578125 8.69140625 C-0.1636018 5.79442732 -0.07798398 2.89745374 0 0 Z " fill="#AF8548" transform="translate(215,288)"/>
<path d="M0 0 C1.61068359 0.41572266 1.61068359 0.41572266 3.25390625 0.83984375 C4.69005529 1.20592096 6.12625599 1.57179558 7.5625 1.9375 C8.26697266 2.11990234 8.97144531 2.30230469 9.69726562 2.49023438 C18.85014046 4.81008744 27.51782766 5.12671381 36.9375 5.0625 C38.19369141 5.05798828 39.44988281 5.05347656 40.74414062 5.04882812 C43.82947663 5.03709681 46.91471316 5.020681 50 5 C50 5.33 50 5.66 50 6 C46.30802425 6.8516366 42.89115556 7.12859379 39.10546875 7.1328125 C37.98462891 7.13410156 36.86378906 7.13539062 35.70898438 7.13671875 C34.54689453 7.13285156 33.38480469 7.12898438 32.1875 7.125 C31.03701172 7.12886719 29.88652344 7.13273437 28.70117188 7.13671875 C12.55016938 7.11820757 12.55016938 7.11820757 5 3.4375 C4.05125 2.98246094 3.1025 2.52742188 2.125 2.05859375 C1.073125 1.53458984 1.073125 1.53458984 0 1 C0 0.67 0 0.34 0 0 Z " fill="#5C4C31" transform="translate(291,40)"/>
<path d="M0 0 C-5.61626217 2.84587919 -9.96812671 3.41136456 -16.21484375 3.29296875 C-17.07058487 3.28872391 -17.92632599 3.28447906 -18.80799866 3.28010559 C-21.5181642 3.26342789 -24.22756248 3.22579705 -26.9375 3.1875 C-28.7844944 3.17243902 -30.63150056 3.1587531 -32.47851562 3.14648438 C-36.98596884 3.11356026 -41.49285472 3.06185469 -46 3 C-46 2.67 -46 2.34 -46 2 C-45.15405273 1.98018066 -44.30810547 1.96036133 -43.43652344 1.93994141 C-40.23806298 1.86091856 -37.0399203 1.77420664 -33.84179688 1.68261719 C-32.46882902 1.64479968 -31.09577785 1.60987348 -29.72265625 1.578125 C-21.80913805 1.39301346 -14.22383872 0.92513832 -6.46191406 -0.68212891 C-3.96401976 -1.0046456 -2.36961966 -0.78871911 0 0 Z " fill="#5D4B2D" transform="translate(355,86)"/>
<path d="M0 0 C0.66 0 1.32 0 2 0 C2.85803148 10.16437295 3.03351814 19.82382142 2 30 C1.34 30 0.68 30 0 30 C0 20.1 0 10.2 0 0 Z " fill="#B28749" transform="translate(294,288)"/>
<path d="M0 0 C-1.66751148 3.94139078 -4.22710649 6.7892812 -7 10 C-7.33 9.01 -7.66 8.02 -8 7 C-10.31 8.65 -12.62 10.3 -15 12 C-13.54229878 8.68092644 -11.70493736 6.34926611 -9.1875 3.75 C-8.52105469 3.04359375 -7.85460937 2.3371875 -7.16796875 1.609375 C-4.56440252 -0.32336245 -3.16900284 -0.33183276 0 0 Z " fill="#765930" transform="translate(315,287)"/>
<path d="M0 0 C3.74866956 0.62252274 6.90513988 1.71431961 10.375 3.25 C17.44678608 6.27446712 24.68362337 8.65116324 32 11 C28.20809726 12.42988218 25.90180543 11.50773245 22.1875 10.125 C18.73948854 8.88939299 15.97192989 7.99714541 12.3125 7.625 C7.45718457 6.70890275 3.83003137 4.05707719 0 1 C0 0.67 0 0.34 0 0 Z " fill="#604E31" transform="translate(249,65)"/>
<path d="M0 0 C0.99 0.33 1.98 0.66 3 1 C3.33 3.31 3.66 5.62 4 8 C3.67 8 3.34 8 3 8 C2.95101563 9.07121094 2.90203125 10.14242188 2.8515625 11.24609375 C2.77654706 12.64325639 2.7009987 14.0403905 2.625 15.4375 C2.5940625 16.14455078 2.563125 16.85160156 2.53125 17.58007812 C2.42719371 19.39239188 2.22080108 21.19817988 2 23 C1.34 23.33 0.68 23.66 0 24 C0 16.08 0 8.16 0 0 Z " fill="#57482E" transform="translate(498,250)"/>
<path d="M0 0 C3.63 0 7.26 0 11 0 C11.33 4.95 11.66 9.9 12 15 C12.66 14.67 13.32 14.34 14 14 C13.34 15.65 12.68 17.3 12 19 C11.01 19 10.02 19 9 19 C9 13.06 9 7.12 9 1 C6.03 1 3.06 1 0 1 C0 0.67 0 0.34 0 0 Z " fill="#887048" transform="translate(439,230)"/>
<path d="M0 0 C3.63 0 7.26 0 11 0 C11.33 4.95 11.66 9.9 12 15 C12.66 14.67 13.32 14.34 14 14 C13.34 15.65 12.68 17.3 12 19 C11.01 19 10.02 19 9 19 C9 13.06 9 7.12 9 1 C6.03 1 3.06 1 0 1 C0 0.67 0 0.34 0 0 Z " fill="#887047" transform="translate(242,230)"/>
<path d="M0 0 C4.49014624 1.49671541 8.47848764 3.83368341 12 7 C12 7.66 12 8.32 12 9 C7.09289601 7.58216872 2.24734082 6.14370029 -2.5 4.25 C-3.655 3.8375 -4.81 3.425 -6 3 C-6.99 3.495 -6.99 3.495 -8 4 C-8 3.01 -8 2.02 -8 1 C-3.545 1.99 -3.545 1.99 1 3 C0.67 2.01 0.34 1.02 0 0 Z " fill="#654E2C" transform="translate(304,147)"/>
<path d="M0 0 C2.0625 0.4375 2.0625 0.4375 4 1 C3.01 1.33 2.02 1.66 1 2 C1 8.93 1 15.86 1 23 C2.32 22.67 3.64 22.34 5 22 C3.6875 23.5 3.6875 23.5 2 25 C1.01 25 0.02 25 -1 25 C-1.02886984 21.02084841 -1.04675406 17.04172347 -1.0625 13.0625 C-1.07087891 11.92619141 -1.07925781 10.78988281 -1.08789062 9.61914062 C-1.09111328 8.53955078 -1.09433594 7.45996094 -1.09765625 6.34765625 C-1.10289307 5.34742432 -1.10812988 4.34719238 -1.11352539 3.31665039 C-1 1 -1 1 0 0 Z " fill="#6E5834" transform="translate(366,89)"/>
<path d="M0 0 C0.66 0 1.32 0 2 0 C2 7.92 2 15.84 2 24 C2.99 24.33 3.98 24.66 5 25 C3.68 25 2.36 25 1 25 C-0.81917028 21.36165944 -0.4345639 17.0756608 -0.625 13.0625 C-0.6765625 12.14275391 -0.728125 11.22300781 -0.78125 10.27539062 C-0.82507813 9.39173828 -0.86890625 8.50808594 -0.9140625 7.59765625 C-0.9752124 6.38348022 -0.9752124 6.38348022 -1.03759766 5.14477539 C-1 3 -1 3 0 0 Z " fill="#594425" transform="translate(266,295)"/>
<path d="M0 0 C1.25683594 0.28617187 2.51367188 0.57234375 3.80859375 0.8671875 C9.20578961 2.06656436 14.62915816 3.10412158 20.0625 4.125 C21.02349609 4.30675781 21.98449219 4.48851563 22.97460938 4.67578125 C25.31616846 5.11846406 27.65796427 5.5598472 30 6 C30 6.33 30 6.66 30 7 C22.34393782 7.19355213 15.33741969 7.3479743 8 5 C8 4.34 8 3.68 8 3 C7.05125 2.87625 6.1025 2.7525 5.125 2.625 C2 2 2 2 0 0 Z " fill="#725C38" transform="translate(279,81)"/>
<path d="M0 0 C1.65 0 3.3 0 5 0 C5.33 0.99 5.66 1.98 6 3 C4.35 2.67 2.7 2.34 1 2 C1 11.9 1 21.8 1 32 C1.99 32.33 2.98 32.66 4 33 C2.68 33 1.36 33 0 33 C0 22.11 0 11.22 0 0 Z " fill="#765930" transform="translate(380,287)"/>
<path d="M0 0 C5.80205656 5.64524422 5.80205656 5.64524422 8 9 C8 9.66 8 10.32 8 11 C2.88634986 9.9318153 -2.07227969 8.76892524 -7 7 C-3.67465243 5.89155081 -1.37817425 6.15545644 2 7 C1.34 4.69 0.68 2.38 0 0 Z " fill="#83683D" transform="translate(486,133)"/>
<path d="M0 0 C3.3 0 6.6 0 10 0 C9 2 9 2 6.0625 3 C4.5465625 3.495 4.5465625 3.495 3 4 C0.77810176 6.22189824 0.07401108 8.08482708 -1 11 C-1.33 11 -1.66 11 -2 11 C-2.17700355 6.39790775 -2.10814567 4.21629134 0 0 Z " fill="#A37C43" transform="translate(428,288)"/>
<path d="M0 0 C0.66 0.33 1.32 0.66 2 1 C1.51273437 1.36222656 1.02546875 1.72445312 0.5234375 2.09765625 C-1.67903013 4.84791711 -1.39868861 6.95922238 -1.375 10.4375 C-1.38273437 11.57058594 -1.39046875 12.70367187 -1.3984375 13.87109375 C-0.97392148 17.20479311 -0.25455532 18.57247615 2 21 C-0.97343996 19.97467587 -1.99860466 19.00202083 -3.8125 16.375 C-5.27811511 12.20956759 -5.31270625 9.20584172 -4 5 C-1.9375 2 -1.9375 2 0 0 Z " fill="#705D3B" transform="translate(105,232)"/>
<path d="M0 0 C0.33 0 0.66 0 1 0 C1.40850553 7.08076251 -0.09579269 13.19925959 -2 20 C-6.7109375 21.1171875 -6.7109375 21.1171875 -9.3125 20.0625 C-10.1478125 19.5365625 -10.1478125 19.5365625 -11 19 C-8.69 19 -6.38 19 -4 19 C-3.79503906 17.87980469 -3.59007812 16.75960937 -3.37890625 15.60546875 C-3.10688311 14.13279176 -2.83474151 12.66013664 -2.5625 11.1875 C-2.42779297 10.44951172 -2.29308594 9.71152344 -2.15429688 8.95117188 C-1.58580263 5.88684924 -0.98690349 2.96071047 0 0 Z " fill="#755E39" transform="translate(232,76)"/>
<path d="M0 0 C-0.36307379 2.68674602 -0.66904228 4.55872304 -2.3125 6.75 C-5.14733276 8.84987612 -7.52170836 9 -11 9 C-9.33333333 7.33333333 -7.66666667 5.66666667 -6 4 C-5.278125 3.236875 -4.55625 2.47375 -3.8125 1.6875 C-2 0 -2 0 0 0 Z " fill="#99743F" transform="translate(307,294)"/>
<path d="M0 0 C0.99 0.99 1.98 1.98 3 3 C3.66 2.34 4.32 1.68 5 1 C5 1.66 5 2.32 5 3 C6.32 3.33 7.64 3.66 9 4 C6.69 5.32 4.38 6.64 2 8 C0.02 6.35 -1.96 4.7 -4 3 C-3.01 3 -2.02 3 -1 3 C-0.67 2.01 -0.34 1.02 0 0 Z " fill="#6C542F" transform="translate(321,149)"/>
<path d="M0 0 C0.66 0.33 1.32 0.66 2 1 C-3.28 6.28 -8.56 11.56 -14 17 C-14 14 -14 14 -12.625 12.5625 C-12.08875 12.046875 -11.5525 11.53125 -11 11 C-10.566875 10.01 -10.566875 10.01 -10.125 9 C-8.60726632 6.30180679 -6.6637241 5.52212805 -4 4 C-2.63015802 2.70420353 -1.2848951 1.38007251 0 0 Z " fill="#C9A76C" transform="translate(265,30)"/>
<path d="M0 0 C1.32 0 2.64 0 4 0 C4.45572917 1.98567708 4.91145833 3.97135417 5.3671875 5.95703125 C5.98007723 8.27742974 5.98007723 8.27742974 8 11 C6.02 11.99 6.02 11.99 4 13 C4 12.34 4 11.68 4 11 C1.69 11 -0.62 11 -3 11 C-1 10 1 9 3 8 C3.34900558 4.28263359 3.34900558 4.28263359 1.5 1.1875 C1.005 0.795625 0.51 0.40375 0 0 Z " fill="#6B512C" transform="translate(437,306)"/>
<path d="M0 0 C1.32 0.33 2.64 0.66 4 1 C4.33 2.98 4.66 4.96 5 7 C4.34 7 3.68 7 3 7 C2.67 8.32 2.34 9.64 2 11 C0 3.375 0 3.375 0 0 Z " fill="#896838" transform="translate(250,307)"/>
<path d="M0 0 C1.125 3.75 1.125 3.75 0 6 C0.99 5.67 1.98 5.34 3 5 C2.34 7.31 1.68 9.62 1 12 C0.34 11.01 -0.32 10.02 -1 9 C-1.33 9.66 -1.66 10.32 -2 11 C-2.66 11 -3.32 11 -4 11 C-3.52269162 9.5410574 -3.04308958 8.08286504 -2.5625 6.625 C-2.29566406 5.81289063 -2.02882813 5.00078125 -1.75390625 4.1640625 C-1 2 -1 2 0 0 Z " fill="#6D532C" transform="translate(259,303)"/>
<path d="M0 0 C3.08089673 2.77280706 4.68775452 5.06326356 6 9 C5.01 9 4.02 9 3 9 C2.67 9.99 2.34 10.98 2 12 C-1.08035714 6.57857143 -1.08035714 6.57857143 -0.6875 3.75 C-0.460625 3.1725 -0.23375 2.595 0 2 C0 1.34 0 0.68 0 0 Z " fill="#71562E" transform="translate(388,293)"/>
<path d="M0 0 C0.99 0 1.98 0 3 0 C3 7.92 3 15.84 3 24 C2.67 24 2.34 24 2 24 C2 17.07 2 10.14 2 3 C1.01 3.33 0.02 3.66 -1 4 C-0.67 2.68 -0.34 1.36 0 0 Z " fill="#B59660" transform="translate(525,249)"/>
<path d="M0 0 C2.42604752 2.42604752 2.75843519 4.14192776 3.625 7.4375 C3.88539063 8.40558594 4.14578125 9.37367188 4.4140625 10.37109375 C5 13 5 13 5 16 C4.34 16 3.68 16 3 16 C3 15.34 3 14.68 3 14 C2.34 14 1.68 14 1 14 C1.020625 12.80375 1.04125 11.6075 1.0625 10.375 C1.06882571 6.81995131 0.69888875 3.49444376 0 0 Z " fill="#876637" transform="translate(245,289)"/>
<path d="M0 0 C5.91969002 1.75990784 11.41634992 4.39694605 17 7 C13.2231503 8.2589499 11.68234419 7.53651347 7.9375 6.3125 C6.87402344 5.97863281 5.81054688 5.64476563 4.71484375 5.30078125 C2 4 2 4 0.62890625 1.85546875 C0.42136719 1.24316406 0.21382813 0.63085938 0 0 Z " fill="#6E5937" transform="translate(262,73)"/>
<path d="M0 0 C0.66 0 1.32 0 2 0 C2 7.26 2 14.52 2 22 C1.67 22 1.34 22 1 22 C0.93941406 20.73542969 0.87882813 19.47085937 0.81640625 18.16796875 C0.73199096 16.50780129 0.64734345 14.84764563 0.5625 13.1875 C0.52318359 12.35412109 0.48386719 11.52074219 0.44335938 10.66210938 C0.40146484 9.85966797 0.35957031 9.05722656 0.31640625 8.23046875 C0.26141968 7.12288208 0.26141968 7.12288208 0.20532227 5.99291992 C0.05157859 3.792505 0.05157859 3.792505 -1 1 C-0.67 0.67 -0.34 0.34 0 0 Z " fill="#645335" transform="translate(525,252)"/>
<path d="M0 0 C1.62463842 -0.05395478 3.24978541 -0.09277195 4.875 -0.125 C5.77992188 -0.14820313 6.68484375 -0.17140625 7.6171875 -0.1953125 C10 0 10 0 12 2 C11.01 2 10.02 2 9 2 C9 2.99 9 3.98 9 5 C6.36 5 3.72 5 1 5 C1.33 4.34 1.66 3.68 2 3 C4.5625 2.375 4.5625 2.375 7 2 C4.69 1.67 2.38 1.34 0 1 C0 0.67 0 0.34 0 0 Z " fill="#664E2A" transform="translate(430,287)"/>
<path d="M0 0 C2.25 -0.375 2.25 -0.375 5 0 C7.3125 3 7.3125 3 9 6 C6.50638429 4.79618552 4.31856917 3.54571278 2 2 C2.33 3.65 2.66 5.3 3 7 C1.5 5.75 1.5 5.75 0 4 C0 2.68 0 1.36 0 0 Z " fill="#5B4525" transform="translate(425,310)"/>
<path d="M0 0 C1.32 0.33 2.64 0.66 4 1 C0.88983545 4.28788824 -2.01618925 6.83735988 -6 9 C-4.47291037 5.56404834 -2.40072955 2.88087546 0 0 Z " fill="#7F663E" transform="translate(172,119)"/>
<path d="M0 0 C1.98 0.495 1.98 0.495 4 1 C4.33 2.32 4.66 3.64 5 5 C3.68 4.01 2.36 3.02 1 2 C1.66 4.31 2.32 6.62 3 9 C2.34 9 1.68 9 1 9 C-0.61949011 6.42786866 -1.04408751 5.32330841 -0.625 2.25 C-0.41875 1.5075 -0.2125 0.765 0 0 Z " fill="#5B4525" transform="translate(201,309)"/>
<path d="M0 0 C6.4 0.36923077 6.4 0.36923077 9.4375 3.5625 C9.953125 4.366875 10.46875 5.17125 11 6 C6.48986609 5.46939601 3.61621781 3.69113883 0 1 C0 0.67 0 0.34 0 0 Z " fill="#685738" transform="translate(277,33)"/>
<path d="M0 0 C5.75 0.875 5.75 0.875 8 2 C8 2.99 8 3.98 8 5 C5.07120629 4.37240135 2.63904371 3.41377341 0 2 C0 1.34 0 0.68 0 0 Z " fill="#A77F45" transform="translate(432,301)"/>
<path d="M0 0 C4.66666667 0.66666667 9.33333333 1.33333333 14 2 C14.33 2.99 14.66 3.98 15 5 C9.88634986 3.9318153 4.92772031 2.76892524 0 1 C0 0.67 0 0.34 0 0 Z " fill="#4F3E24" transform="translate(479,139)"/>
<path d="M0 0 C0.66 0 1.32 0 2 0 C2 1.98 2 3.96 2 6 C0.68 6.33 -0.64 6.66 -2 7 C-1.34 4.69 -0.68 2.38 0 0 Z " fill="#9A743F" transform="translate(261,302)"/>
</svg>
